<svg width="32" height="32" viewBox="0 0 32 32" fill="none" xmlns="http://www.w3.org/2000/svg">
<path d="M32 16.0004C32 24.8365 24.837 32 16.0002 32C7.16345 32 0 24.8365 0 16.0004C0 7.16353 7.16345 0 16.0002 0C24.837 0 32 7.16353 32 16.0004Z" fill="#F57DC0"/>
<path d="M21.7249 28.5221C21.7056 28.4918 21.6863 28.4607 21.6669 28.4296C21.6593 28.417 21.6518 28.4052 21.6442 28.3926C21.6266 28.364 21.6089 28.3346 21.5904 28.3051C21.582 28.29 21.5727 28.2757 21.5635 28.2606C21.5458 28.2311 21.5282 28.2 21.5097 28.1698C21.5013 28.1546 21.4929 28.1412 21.4836 28.126C21.4575 28.0806 21.4306 28.0344 21.4029 27.9873C20.8832 27.0833 20.7504 25.0871 20.7226 23.7803C20.7218 23.7391 20.7209 23.6987 20.7201 23.6592C20.7201 23.6525 20.7201 23.6458 20.7201 23.6382C20.7192 23.5987 20.7184 23.5592 20.7176 23.5205C20.7176 23.5188 20.7176 23.518 20.7176 23.5163C20.7176 23.4818 20.7167 23.4482 20.7167 23.4145C20.7167 23.4028 20.7167 23.3901 20.7167 23.3784C20.7159 23.354 20.7159 23.3288 20.7159 23.3052C20.7159 23.2951 20.7159 23.285 20.7159 23.2758C20.7159 23.2455 20.7159 23.2169 20.7159 23.1883C20.7159 23.1749 20.7159 23.1614 20.7159 23.148C20.7159 23.1312 20.7159 23.1143 20.7159 23.0975C20.7159 23.0841 20.7159 23.0706 20.7159 23.058C20.7159 23.0336 20.7159 23.0109 20.7159 22.9874C20.7159 22.9747 20.7159 22.9621 20.7167 22.9495C20.7167 22.9369 20.7167 22.9243 20.7167 22.9125C20.7167 22.8991 20.7167 22.8865 20.7167 22.8747C20.7167 22.8629 20.7167 22.8528 20.7176 22.8427C20.7176 22.8234 20.7176 22.8057 20.7176 22.7889C20.7176 22.778 20.7184 22.7679 20.7184 22.7586C20.7184 22.7477 20.7184 22.7376 20.7184 22.7275C20.7192 22.7208 20.7192 22.7149 20.7192 22.709C20.7192 22.688 20.7201 22.6695 20.7201 22.6527C20.7201 22.6502 20.7201 22.6468 20.7201 22.6451C20.7209 22.6367 20.7209 22.6283 20.7209 22.6207C20.7209 22.6165 20.7209 22.6115 20.7209 22.6073C20.7209 22.6022 20.7218 22.5972 20.7218 22.5921C20.7218 22.5877 20.7218 22.5834 20.7218 22.5796C20.7218 22.5734 20.7226 22.5672 20.7226 22.561C20.7226 22.5585 20.7226 22.5551 20.7226 22.5535C20.7226 22.5518 20.7226 22.5501 20.7226 22.5484C20.7226 22.5465 20.7206 22.5453 20.7189 22.5462L15.9622 25.0457C15.8073 25.1271 15.7179 25.2944 15.7319 25.4688C15.7345 25.4999 15.7365 25.5311 15.7387 25.5622C15.7432 25.6244 15.7476 25.6866 15.751 25.7472C15.7532 25.7833 15.7547 25.8186 15.7566 25.8539C15.7592 25.9086 15.7616 25.9633 15.7635 26.0171C15.7647 26.0532 15.7657 26.0894 15.7665 26.1256C15.7677 26.1769 15.7685 26.2273 15.7689 26.2778C15.7693 26.3131 15.7695 26.3484 15.7695 26.3837C15.7693 26.4342 15.7687 26.4829 15.7678 26.5317C15.7673 26.5653 15.7668 26.599 15.7659 26.6309C15.7644 26.6831 15.7621 26.7335 15.7599 26.784C15.7587 26.8117 15.7577 26.8412 15.7561 26.8689C15.7524 26.9345 15.7479 26.9976 15.7429 27.0606C15.7419 27.0732 15.7412 27.0858 15.7403 27.0976C15.7339 27.1716 15.7266 27.2439 15.7185 27.3146C15.7155 27.3406 15.712 27.365 15.7087 27.3894C15.703 27.4357 15.6972 27.4819 15.6906 27.5265C15.6864 27.5551 15.6817 27.5828 15.6773 27.6106C15.6709 27.6509 15.6642 27.6904 15.6572 27.73C15.652 27.7586 15.6467 27.7863 15.6413 27.8149C15.634 27.8519 15.6262 27.8897 15.6184 27.9259C15.6124 27.9536 15.6066 27.9814 15.6002 28.0083C15.5918 28.0445 15.5829 28.0806 15.574 28.1159C15.5675 28.142 15.5611 28.1672 15.5543 28.1925C15.5444 28.2295 15.5338 28.2656 15.5235 28.3018C15.5167 28.3245 15.5105 28.3472 15.5035 28.369C15.4902 28.4128 15.4761 28.4557 15.4616 28.4985C15.4571 28.5112 15.453 28.5254 15.4485 28.5381C15.0818 29.5875 14.4427 30.198 13.75 30.5806C13.1408 30.9171 13.3089 31.789 13.9995 31.8755C14.6547 31.9576 15.3222 32 15.9997 32C17.8455 32 19.618 31.6869 21.2678 31.1113C22.2283 30.7761 22.2714 29.3802 21.7249 28.5221Z" fill="#EC8D76"/>
<path d="M24.6146 14.5962C24.373 14.4212 24.154 14.2033 24.1918 13.9073C24.413 12.1776 24.6463 9.44414 22.5737 7.23336C19.993 4.48197 16.4671 4.48197 14.5319 4.95455C12.5967 5.42797 10.3176 7.36285 9.84467 9.47012C9.37148 11.5765 9.66816 12.2131 9.45549 12.8934C9.31903 13.3299 9.11263 13.8713 9.11701 14.473C9.12232 15.2015 9.47124 15.8855 9.55753 16.6089C9.59628 16.9339 9.6256 17.3083 9.6256 17.6974C9.6256 18.846 10.3059 20.4614 11.5814 22.0767C12.857 23.6929 13.629 25.3814 15.1105 25.521C17.364 25.7337 20.5665 23.703 21.6588 21.3578C21.819 21.0131 21.9541 20.656 22.0729 20.2931C22.268 19.6969 22.9279 19.1998 23.2759 18.6778C23.5946 18.1994 24.0092 17.8807 24.3279 17.4342C24.8064 16.7648 25.3168 15.1066 24.6146 14.5962Z" fill="#F79785"/>
<path d="M10.4475 9.36498C10.6639 8.75197 11.0029 8.19279 11.5363 7.74712C12.5175 6.92725 13.9315 6.54717 15.1958 6.62958C15.8631 6.6733 16.6665 6.83979 17.2625 7.15681C18.3533 7.73702 18.9677 8.3576 19.1603 9.60969C19.2418 10.1361 19.2393 10.6743 19.3368 11.199C19.3423 11.2271 19.3827 11.3529 19.4417 11.5125C19.4417 11.5126 19.13 13.0018 19.13 13.0018C19.0381 13.0018 10.393 13.324 9.67534 13.3507C9.64081 13.352 9.61215 13.3434 9.58216 13.3262C9.48722 13.2719 9.45898 13.1472 9.51736 13.0547C9.70196 12.7621 10.051 12.1451 10.0744 11.6303C10.1093 10.8643 10.1956 10.078 10.4475 9.36498Z" fill="#F79785"/>
<path d="M13.0059 19.845C13.0059 19.845 13.027 20.0788 13.3673 20.1209C13.7074 20.1637 13.9413 20.0149 14.0688 19.7172C14.1815 19.4541 14.3939 18.194 14.383 16.7155C14.3805 16.3858 14.1046 16.1286 13.775 16.1342C13.4103 16.1405 13.1319 16.4628 13.172 16.8253C13.2349 17.3932 13.3075 18.1637 13.2822 18.5055C13.2396 19.0798 13.0059 19.845 13.0059 19.845Z" fill="#F79785"/>
<path d="M13.084 19.512C13.084 19.512 13.2541 19.3842 13.4241 19.3842C13.5565 19.3842 13.9632 19.5298 14.1373 19.5944C14.1831 19.6114 14.2344 19.5914 14.2563 19.5477C14.2812 19.4979 14.2582 19.4376 14.2059 19.4182C14.0157 19.3477 13.5968 19.2001 13.4241 19.2001C13.4241 19.2001 13.4241 19.2001 13.4241 19.2001C13.4241 19.2001 13.42 19.2001 13.4128 19.2006C13.2507 19.2112 13.149 19.3632 13.084 19.512Z" fill="#F79785"/>
<path d="M17.058 17.4821C17.058 17.8958 16.7224 18.2313 16.3085 18.2313C15.8949 18.2313 15.5593 17.8958 15.5593 17.4821C15.5593 17.0684 15.8949 16.7329 16.3085 16.7329C16.7224 16.7329 17.058 17.0684 17.058 17.4821Z" fill="#F79785"/>
<path d="M13.1653 17.435C13.1975 17.821 12.9709 18.1556 12.6593 18.1808C12.3478 18.2069 12.0693 17.9151 12.0372 17.5292C12.0051 17.1423 12.2316 16.8085 12.5433 16.7825C12.8547 16.7572 13.1331 17.049 13.1653 17.435Z" fill="#F79785"/>
<path d="M21.9551 20.1133C21.1806 21.4629 19.7578 22.1003 18.7765 21.5377C17.7955 20.9743 17.6277 19.4246 18.4017 18.0749C19.1759 16.7253 20.5987 16.0879 21.58 16.6505C22.5605 17.2139 22.7287 18.7636 21.9551 20.1133Z" fill="#F79785"/>
<path d="M12.0497 18.788C11.7531 17.9025 11.1587 17.1964 10.5194 16.8793C10.0237 16.6334 9.62556 17.1439 9.62556 17.6973C9.62556 17.9854 9.66844 18.303 9.75282 18.6426C10.2273 20.552 12.6744 20.6537 12.0497 18.788Z" fill="#F79785"/>
<path d="M9.72339 15.6161C9.72339 15.6161 9.40452 13.3525 10.2017 13.0018C10.656 12.802 11.1725 12.8507 11.5327 12.9296C11.8375 12.9963 12.0902 13.1927 12.2865 13.4352L12.4001 13.5754C12.4854 13.6808 12.5485 13.8023 12.5856 13.9327C12.5906 13.9501 12.5949 13.9666 12.5986 13.9843C12.6322 14.1443 12.809 15.0487 12.8319 16.4783C12.8395 16.9556 12.2921 17.2093 11.918 16.9127C11.9004 16.8988 11.8841 16.8842 11.8682 16.8685C11.7384 16.74 11.1098 16.1232 10.9669 16.0946C10.9313 16.0875 10.8719 16.0819 10.801 16.0776C10.3975 16.0531 10.0092 15.902 9.72339 15.6161Z" fill="#F79785"/>
<path d="M16.0375 17.4661C16.0375 17.4661 15.3997 14.1496 16.1648 13.1296C16.8062 12.2742 17.7834 12.2029 18.0832 12.2022C18.144 12.2021 18.2041 12.2075 18.2646 12.2133L19.2007 12.3026C19.4084 12.3225 19.434 12.3077 19.6337 12.368C20.4518 12.6149 21.0245 13.446 20.8788 14.288C20.8623 14.3838 20.8437 14.4829 20.8227 14.5849C20.5642 15.8448 19.4557 16.677 18.2026 16.9663L16.0375 17.4661Z" fill="#F79785"/>
<path d="M12.9279 20.0644C12.9115 20.1384 13.1624 20.2898 13.2101 20.31C13.5452 20.4546 13.9279 20.2747 14.2459 20.1637C14.43 20.0992 14.6859 20.1841 14.8543 20.2944C14.9955 20.3869 15.0898 20.6471 14.9261 20.6884C14.8284 20.7123 13.5605 20.705 13.2136 20.7025C13.156 20.7021 13.1004 20.6859 13.0512 20.6559C12.9812 20.6131 12.9304 20.5448 12.9095 20.4654L12.8978 20.4208C12.8803 20.3541 12.8789 20.2841 12.8939 20.2167C12.9097 20.1461 12.9278 20.0649 12.9279 20.0644Z" fill="#F79785"/>
<path d="M12.8994 20.2696C12.8994 20.2696 13.0058 20.5673 13.4523 20.5463C13.8986 20.5253 14.175 20.3125 14.3238 20.2696C14.4726 20.2276 15.0042 20.3764 14.9829 20.5463L14.9681 20.6051C14.9496 20.6791 14.9322 20.7531 14.9117 20.8266C14.832 21.1109 14.5865 21.847 14.175 21.864C13.884 21.8764 13.7867 21.6396 13.6897 21.4023C13.554 21.0705 13.1975 20.9023 13.0051 20.5998C12.9435 20.5028 12.8994 20.391 12.8994 20.2696Z" fill="#F79785"/>
<path d="M14.98 24.4699C14.8109 24.3996 14.8615 24.1772 15.0446 24.1789C15.1932 24.1802 15.3557 24.3444 15.2448 24.4433C15.2016 24.4817 15.1499 24.5063 15.0897 24.5001C15.0557 24.4968 15.0185 24.4859 14.98 24.4699Z" fill="#F79785"/>
<path d="M12.444 22.2091C12.513 22.177 12.5684 22.2613 12.5384 22.3312C12.5082 22.4017 12.4124 22.4162 12.3896 22.343C12.3738 22.292 12.379 22.2393 12.444 22.2091Z" fill="#F79785"/>
<path d="M18.7809 22.1269C18.6957 22.0638 18.6172 22.1849 18.6747 22.274C18.7209 22.3456 18.8286 22.3499 18.8402 22.2655C18.8467 22.2178 18.835 22.167 18.7809 22.1269Z" fill="#F79785"/>
<path d="M18.7461 13.6004C18.5641 13.5836 18.1427 13.8181 18.3249 13.803C18.5094 13.7877 19.0766 13.6567 18.8947 13.6217C18.846 13.6123 18.7964 13.6051 18.7461 13.6004Z" fill="#C85D4E"/>
<path d="M11.2101 13.9807C11.3535 13.9583 11.6613 14.1578 11.5163 14.1519C11.3689 14.1459 10.9094 14.0704 11.0486 14.0217C11.1007 14.0034 11.1547 13.9893 11.2101 13.9807Z" fill="#C85D4E"/>
<path d="M-nan -nanL24.3056 14.8274L24.1467 14.9795C24.1349 14.9907 24.1219 15.0004 24.1087 15.0099C23.9211 15.1442 23.5668 15.6553 23.5322 15.7055C23.5302 15.7084 23.5285 15.711 23.5266 15.714L23.2964 16.0735C23.2948 16.0762 23.2911 16.0766 23.2889 16.0744C23.287 16.0725 23.2842 16.0723 23.2824 16.0741C23.1656 16.1863 22.9486 16.6782 22.9092 16.7689C22.9052 16.7782 22.9046 16.7887 22.9075 16.7984L22.9136 16.8188C22.9148 16.8228 22.9136 16.8271 22.9104 16.8298C22.9062 16.8335 22.9056 16.8397 22.9088 16.8442C22.9178 16.8568 22.9259 16.8693 22.9331 16.8819C22.9349 16.8851 22.9364 16.8885 22.9375 16.892L22.9805 17.0247C22.9832 17.033 22.9857 17.0478 22.9863 17.0566C22.9949 17.1854 23.1318 17.3165 23.2147 17.2174C23.2507 17.1744 23.2798 17.1256 23.2957 17.0709C23.3186 16.9924 23.3135 16.92 23.2954 16.8573C23.2537 16.7127 23.2016 16.5533 23.2747 16.4217C23.3321 16.32 23.4121 16.2982 23.467 16.2971C23.4821 16.2968 23.4946 16.2717 23.4837 16.2613L23.4577 16.2364C23.4532 16.2322 23.4576 16.2248 23.4634 16.2267C23.4683 16.2282 23.473 16.223 23.4717 16.218C23.4452 16.1156 23.6366 15.9122 23.6725 15.8751C23.6757 15.8718 23.6757 15.8666 23.6724 15.8634C23.7379 15.9136 23.8357 15.8417 23.8337 15.7592C23.8319 15.687 23.8427 15.6113 23.8809 15.5506C23.9476 15.4434 24.1127 15.3356 24.225 15.2712C24.254 15.2546 24.2845 15.2541 24.307 15.2788C24.3644 15.3419 24.5053 15.2856 24.4789 15.2046C24.4267 15.0444 24.3653 14.8915 24.3056 14.8274L-nan -nanZM23.5241 16.7679C23.5086 16.8273 23.5719 16.8285 23.5826 16.7681C23.5912 16.7193 23.5484 16.6974 23.5315 16.7439C23.5288 16.7514 23.5263 16.7594 23.5241 16.7679ZM23.8269 16.8805C23.8116 16.9802 23.9102 16.9168 23.9214 16.8166C23.922 16.8113 23.9225 16.8061 23.923 16.801C23.9314 16.7125 23.8403 16.7926 23.8269 16.8805ZM24.5413 16.0036C24.4857 15.984 24.4244 16.0405 24.4285 16.0993C24.4308 16.1325 24.4315 16.168 24.4309 16.205C24.4285 16.3435 24.5609 16.3834 24.5762 16.2457C24.5854 16.163 24.5859 16.0999 24.5848 16.0613C24.584 16.0347 24.5663 16.0125 24.5413 16.0036Z" fill="#F79785"/>
<path d="M13.2961 20.7447C13.2961 20.7447 13.7071 20.9995 13.8913 20.9852C14.0884 20.9708 13.9674 20.7589 13.7704 20.7736C13.6123 20.7854 13.4392 20.7832 13.2961 20.7447Z" fill="#F79785"/>
<path d="M-nan -nanL24.9506 15.1562C24.9161 14.9544 24.8287 14.7593 24.6807 14.6155C24.4561 14.3977 24.129 14.3624 23.844 14.4642C23.6985 14.5155 23.5749 14.6046 23.4656 14.7106C23.4126 14.7627 23.3924 14.8283 23.3563 14.8905C23.3151 14.9628 23.2797 15.0377 23.2427 15.1125C23.0788 15.4379 22.9324 15.7768 22.7012 16.0627C22.7004 16.0635 22.702 16.0644 22.7029 16.0636C22.8736 15.8584 22.9989 15.6212 23.1208 15.3849C23.1814 15.2689 23.241 15.152 23.3075 15.0402C23.3722 14.9317 23.4479 14.7989 23.5547 14.7265C23.7944 14.5626 24.0357 14.4499 24.3342 14.5054C24.557 14.5474 24.7404 14.6996 24.8362 14.9014C25.0179 15.284 24.9464 15.7667 24.853 16.1619C24.7538 16.5799 24.5882 16.9734 24.3712 17.3434C24.0971 17.8092 23.6514 18.1473 23.331 18.5786C23.1763 18.7872 23.0376 19.0041 22.8046 19.1353C22.5616 19.2715 22.3018 19.2093 22.0731 19.0781C22.0546 19.0672 22.0386 19.0949 22.0562 19.1067C22.2438 19.2261 22.4548 19.2867 22.6743 19.227C22.8879 19.1698 23.0569 18.9932 23.1889 18.8242C23.2696 18.7199 23.3378 18.6056 23.4176 18.4996C23.5194 18.3642 23.6329 18.2389 23.7473 18.1145C23.9407 17.9042 24.1458 17.6991 24.3182 17.4704C24.5604 17.1491 24.7177 16.764 24.832 16.3814C24.9489 15.9912 25.0204 15.5615 24.9506 15.1562L-nan -nanZM22.6692 17.9127C22.6692 17.9146 22.6719 17.9116 22.6721 17.9096C22.6974 17.68 22.8387 17.5132 22.9493 17.3198C23.0485 17.1474 23.0518 16.9852 22.9627 16.8069C22.9375 16.7581 22.8635 16.801 22.8887 16.8498C22.9972 17.0592 22.9829 17.2257 22.8601 17.4216C22.7617 17.5788 22.6819 17.7243 22.6692 17.9127ZM24.3266 14.8813C24.3636 14.851 24.3132 14.7862 24.2753 14.8148C24.14 14.9166 24.0231 15.0528 23.9096 15.1781C23.7767 15.3244 23.6573 15.4825 23.5438 15.6439C23.305 15.9837 23.0804 16.3452 22.9148 16.7262C22.9089 16.7405 22.9282 16.7531 22.9358 16.7388C23.0337 16.5526 23.1316 16.3686 23.2365 16.1884C23.2415 16.1799 23.2665 16.1807 23.2764 16.1813C23.5477 16.1996 23.6468 16.4906 23.5942 16.7248C23.5931 16.7296 23.5964 16.7377 23.5976 16.7329C23.6792 16.5008 23.5656 16.1451 23.2764 16.1359C23.273 16.1359 23.2695 16.1315 23.2712 16.1286C23.3206 16.0445 23.3715 15.9614 23.4247 15.8794C23.4647 15.8176 23.5622 15.8302 23.6163 15.8801C23.6432 15.9048 23.6754 15.927 23.7145 15.95C23.7674 15.982 23.8272 16.0106 23.8734 16.0518C23.9331 16.1048 23.9281 16.2082 23.9239 16.2805C23.9062 16.6058 23.7634 16.9126 23.7859 17.2429C23.7859 17.2431 23.7861 17.2433 23.7863 17.2433C23.7866 17.2433 23.7868 17.2431 23.7868 17.2429C23.7667 16.905 23.9213 16.5873 23.944 16.2536C23.9516 16.1384 23.9558 16.0291 23.8574 15.9525C23.7585 15.8746 23.601 15.8267 23.5451 15.7055C23.5448 15.7049 23.5442 15.7046 23.5439 15.7041C23.5434 15.7034 23.5433 15.7023 23.5437 15.7017C23.6587 15.539 23.7863 15.3838 23.9213 15.237C24.0458 15.1007 24.1837 14.9956 24.3266 14.8813Z" fill="#F79785"/>
<path d="M13.2306 18.2952C13.3052 18.6476 13.2555 18.9814 13.1431 19.3194C13.0533 19.5885 12.8994 19.8391 12.839 20.1183C12.788 20.3521 12.8409 20.5724 13.004 20.7498C13.1218 20.8776 13.2751 20.96 13.4357 21.0206C13.5399 21.0592 13.648 21.0735 13.7565 21.0946C13.8564 21.1139 13.9637 21.1341 14.0652 21.1198C14.0835 21.1164 14.083 21.0861 14.0652 21.0828C13.9674 21.066 13.8684 21.0634 13.7703 21.0441C13.6572 21.0206 13.5468 20.9609 13.4441 20.9096C13.2958 20.8364 13.1521 20.7464 13.0452 20.6178C12.8895 20.4311 12.9242 20.1864 12.9749 19.9669C13.0365 19.7004 13.1443 19.4473 13.2105 19.1815C13.2837 18.8881 13.3069 18.5904 13.2316 18.2952C13.2314 18.2944 13.2304 18.2944 13.2306 18.2952Z" fill="#C85D4E"/>
<path d="M14.4205 20.8432C14.3682 20.7137 14.4665 20.6851 14.5755 20.6775C14.6833 20.6708 14.7826 20.6624 14.8872 20.6952C14.8978 20.6977 14.902 20.6817 14.8918 20.6783C14.7599 20.6355 14.6198 20.5825 14.4812 20.6228C14.3661 20.6565 14.354 20.7565 14.4029 20.8507C14.4078 20.8608 14.4248 20.8541 14.4205 20.8432Z" fill="#C85D4E"/>
<path d="M14.8597 20.8179C15.0287 20.7035 15.0782 20.4647 15.0589 20.2722C15.0576 20.2587 15.0405 20.2596 15.039 20.2722C15.0147 20.4832 15.0079 20.6481 14.8547 20.8112C14.8514 20.8145 14.8557 20.8204 14.8597 20.8179Z" fill="#C85D4E"/>
<path d="M14.5017 20.7645C14.4638 20.7665 14.4197 20.7247 14.4517 20.7043C14.4556 20.7019 14.4599 20.6995 14.4647 20.6971C14.5475 20.6573 14.5934 20.7594 14.5017 20.7645Z" fill="#69242A"/>
<path d="M12.8428 22.3466C12.8428 22.3466 13.2731 21.9766 13.5848 21.9194C13.7831 21.8833 13.9406 22.0582 14.1295 22.0783C14.3519 22.1019 14.5417 21.9716 14.7616 21.9623C15.0876 21.948 15.2576 21.9943 15.9095 22.1212C16.1735 22.173 16.5877 22.2057 16.9965 22.2254C17.2878 22.2395 17.4004 22.757 17.1088 22.757C16.8536 22.757 15.1247 22.9276 15.0537 22.9411C14.3761 23.0779 13.681 22.7451 13.0567 22.4483L12.8428 22.3466Z" fill="#F79785"/>
<path d="M12.7522 22.3937C12.7522 22.3937 12.9198 22.6906 13.1058 22.9252C13.2919 23.1589 13.2795 23.5457 13.4409 23.7114C13.6269 23.9031 14.7061 24.115 15.3389 23.8173C15.7928 23.6038 16.9012 22.825 17.4913 22.4019C17.5659 22.3485 17.5063 22.2244 17.4169 22.2449C17.2481 22.2827 17.0735 22.3508 16.8648 22.3508C16.3624 22.3508 14.2596 22.3937 14.2038 22.4147C14.1479 22.4358 13.1989 22.3937 13.143 22.3937C13.0871 22.3937 12.7522 22.3937 12.7522 22.3937Z" fill="#EF276E"/>
<path d="M13.3047 23.0311C13.3047 23.0311 13.2798 23.5272 13.7264 23.6551C14.1384 23.7722 14.6455 23.7211 14.7215 23.7125C14.7283 23.7118 14.7346 23.711 14.7413 23.7101L15.185 23.6527C15.2464 23.6448 15.307 23.6322 15.3665 23.615C15.4391 23.5941 15.5097 23.5667 15.5757 23.53C15.7564 23.4293 16.1271 23.2039 16.22 23.0025C16.2659 22.9029 16.1979 22.844 16.0939 22.8095C15.8023 22.7125 15.3795 22.53 15.1779 22.762C15.1507 22.7928 14.2596 22.8011 13.7836 22.8033C13.5979 22.8041 13.4224 22.8874 13.3047 23.0311Z" fill="black"/>
<path d="M13.3047 23.0311C13.3047 23.0311 13.2798 23.5272 13.7264 23.6551C14.1384 23.7722 14.6455 23.7211 14.7215 23.7125C14.7283 23.7118 14.7346 23.711 14.7413 23.7101L15.185 23.6527C15.2464 23.6448 15.307 23.6322 15.3665 23.615C15.4391 23.5941 15.5097 23.5667 15.5757 23.53C15.7564 23.4293 16.1271 23.2039 16.22 23.0025C16.2659 22.9029 16.1979 22.844 16.0939 22.8095C15.8023 22.7125 15.3795 22.53 15.1779 22.762C15.1507 22.7928 14.2596 22.8011 13.7836 22.8033C13.5979 22.8041 13.4224 22.8874 13.3047 23.0311Z" fill="#EF276E"/>
<path d="M-nan -nanL17.4169 22.2448C17.2481 22.2827 17.0735 22.3508 16.8648 22.3508C16.3624 22.3508 14.2596 22.3937 14.2038 22.4147C14.1479 22.4357 13.1989 22.3937 13.143 22.3937C12.9684 22.3937 12.8612 22.5805 12.9596 22.7248C13.0048 22.7913 13.0546 22.8606 13.1058 22.9251C13.1575 22.9902 13.1938 23.0668 13.223 23.1468C13.2234 23.1481 13.2242 23.1493 13.2253 23.1501C13.2299 23.1539 13.238 23.1513 13.2407 23.146C13.2608 23.1062 13.3675 22.9882 13.9246 22.9882C14.5946 22.9882 16.2693 22.9461 16.3065 23.2009C16.3082 23.2122 16.3209 23.2176 16.3304 23.2112C16.775 22.9128 17.2449 22.5792 17.5482 22.3612C17.6118 22.3155 17.5609 22.2105 17.4848 22.2289C17.4624 22.2343 17.4398 22.2396 17.4169 22.2448L-nan -nanZM13.4409 23.4776C13.4409 23.4776 13.6455 23.7963 14.1107 23.8173C14.4326 23.8324 14.4037 23.6453 14.0824 23.6205C13.822 23.6005 13.5867 23.5579 13.4409 23.4776Z" fill="#EF276E"/>
<path d="M12.873 22.4787L12.8993 22.512C13.0402 22.6906 13.261 22.7831 13.4872 22.8075C13.6826 22.8293 13.6175 22.9563 14.0641 22.9563C14.5107 22.9563 14.5387 22.8932 14.7713 22.8613C15.0038 22.8293 16.5857 22.6586 16.6693 22.7124C16.6993 22.7314 16.8091 22.7355 16.8402 22.7185C16.899 22.6863 16.9819 22.6402 17.0707 22.5881C17.1981 22.5135 17.1376 22.3927 16.9967 22.4366C16.8545 22.4809 16.7267 22.5222 16.6787 22.5417C16.5669 22.5879 15.3186 22.7275 14.778 22.7525C14.6435 22.7587 14.5089 22.7672 14.3766 22.7923L14.3354 22.8001C14.3096 22.805 14.3179 22.8015 14.2926 22.8086C13.9018 22.9189 13.2801 22.6427 12.9035 22.4911C12.8935 22.487 12.8833 22.4829 12.873 22.4787Z" fill="#EF276E"/>
<path d="M17.8807 22.1179C17.8782 22.1195 17.875 22.1198 17.8721 22.1203L17.4604 22.181C17.0696 22.2449 16.5114 22.2869 15.9533 22.2449C15.3948 22.202 14.7436 22.0103 14.4273 22.0742C14.1154 22.1372 13.7723 22.0484 13.4563 22.0112C13.4511 22.0106 13.446 22.0103 13.4411 22.0103C13.2921 22.0103 13.0503 22.1381 12.8827 22.2449C12.7277 22.3433 12.5029 22.2062 12.4703 22.1852C12.4693 22.1846 12.4683 22.184 12.4674 22.1834C12.4668 22.1829 12.466 22.182 12.4654 22.1824C12.4647 22.1829 12.4656 22.1838 12.4662 22.1844C12.5103 22.2269 12.5558 22.2653 12.6023 22.3004C12.6054 22.3029 12.6086 22.3054 12.612 22.308C12.632 22.3231 12.6522 22.3382 12.6725 22.3517C12.8607 22.482 13.0625 22.5653 13.2482 22.6124C13.3374 22.6393 13.4274 22.6645 13.5191 22.6889C13.5258 22.6906 13.5861 22.6914 13.5905 22.7007C13.6063 22.7309 13.6299 22.7612 13.6549 22.7822C13.7167 22.8361 13.7865 22.8613 13.8621 22.8772C13.9422 22.8932 14.0236 22.8957 14.1041 22.8814C14.1771 22.868 14.275 22.873 14.3404 22.8293C14.3462 22.8255 14.3494 22.817 14.3561 22.8153L14.5815 22.7579C14.5834 22.7574 14.5852 22.7595 14.5872 22.7595C15.1287 22.7772 15.6759 22.7225 16.2119 22.6384C16.5009 22.5922 16.7875 22.5308 17.0702 22.4484C17.2052 22.4089 17.3388 22.3651 17.4707 22.3138C17.6106 22.2595 17.7421 22.186 17.8787 22.1207C17.8802 22.12 17.8824 22.1179 17.8807 22.1179Z" fill="#C9154F"/>
<path d="M16.115 12.6582C15.5106 13.1514 16.2528 13.5359 16.8912 13.0876C17.181 12.8849 17.474 12.6756 18.095 12.5301C18.7016 12.4065 19.6321 12.3468 20.9586 12.9266C20.9766 12.9345 20.9963 12.9383 21.016 12.9377C21.1183 12.9345 21.1353 12.8719 21.0446 12.8244C20.7435 12.6666 20.1378 12.3733 19.3734 12.1542C18.2663 11.8364 17.2573 11.9961 16.4885 12.4098C16.3478 12.486 16.2231 12.5701 16.115 12.6582Z" fill="#050301"/>
<path d="M16.2002 13.4921C16.1613 13.5145 16.1241 13.5357 16.0889 13.5555C15.9202 13.6504 15.6871 13.6061 15.7096 13.4139C15.7395 13.1322 16.0428 12.7386 16.5382 12.4737C16.7234 12.3737 16.9221 12.2904 17.1261 12.2265C17.7908 12.0188 18.5674 12.0037 19.3607 12.2492C20.0978 12.4742 20.6864 12.7765 20.9885 12.9478C20.9979 12.9531 20.9935 12.9682 20.9827 12.9682C20.9811 12.9682 20.9795 12.9678 20.9781 12.9671C19.9674 12.4644 19.0575 12.3805 18.3765 12.4594C17.629 12.557 17.257 12.8 16.9544 13.0052C16.9237 13.027 16.8937 13.0481 16.8641 13.0691C16.6632 13.2146 16.4411 13.3525 16.2002 13.4921Z" fill="#050301"/>
<path d="M12.621 14.0059C12.614 14.0017 12.2757 13.8865 11.9297 13.5493C11.7527 13.3828 11.5779 13.2003 11.2319 13.0952C10.9003 13.0035 10.38 12.9812 9.68743 13.4505C9.67622 13.458 9.66214 13.4603 9.64919 13.4564C9.60664 13.4434 9.58421 13.3424 9.61854 13.314C9.78028 13.1807 10.0951 12.9364 10.5033 12.7219C11.0495 12.4376 11.6177 12.5242 12.0634 12.8026C12.5467 13.1036 12.7842 13.6586 12.621 14.0059Z" fill="#050301"/>
<path d="M12.3394 13.8234C12.465 13.8991 12.6244 13.8259 12.6088 13.68C12.6066 13.6595 12.6035 13.6386 12.5995 13.6173C12.552 13.3508 12.3384 13.0422 12.0405 12.8572C11.9314 12.7891 11.8169 12.7327 11.7028 12.6932C11.3321 12.5612 10.9097 12.5763 10.5185 12.7983C10.1237 13.0213 9.8226 13.2795 9.66248 13.4235C9.65505 13.4302 9.65812 13.4423 9.66765 13.4453C9.67169 13.4466 9.67619 13.4459 9.67957 13.4433C10.2061 13.045 10.7045 12.9625 11.0734 13.0203C11.4773 13.0876 11.7019 13.2869 11.8818 13.4567C11.9004 13.4752 11.9187 13.4929 11.9368 13.5105C12.0608 13.6316 12.1937 13.7351 12.3394 13.8234Z" fill="#050301"/>
<path d="M18.1104 17.4661C18.4898 17.6658 18.9426 17.6664 19.3267 17.4758C19.533 17.3734 19.7646 17.2608 19.9758 17.1631C20.0838 17.1133 20.1576 17.0098 20.1675 16.8913C20.1886 16.6392 19.9265 16.4604 19.6994 16.5722L18.2605 17.2801C18.1855 17.317 18.1306 17.3851 18.1104 17.4661Z" fill="#050301"/>
<path d="M20.1098 15.3832C20.108 15.3272 20.1367 15.2747 20.1833 15.2436C20.1907 15.2387 20.1986 15.2334 20.2069 15.2277C20.4001 15.0963 20.6261 15.2363 20.4551 15.3955C20.4195 15.4287 20.3821 15.4617 20.3427 15.4945C20.2495 15.5722 20.1137 15.5045 20.1098 15.3832Z" fill="#050301"/>
<path d="M20.2491 15.5295C20.3098 15.501 20.3054 15.5167 20.3565 15.4734C20.6408 15.2321 20.5713 14.7509 20.2293 14.6022C19.8283 14.4278 19.2109 14.2595 18.406 14.3388C17.506 14.4275 16.9595 15.0816 16.6065 15.8248C16.3211 16.4258 16.9485 17.002 17.5769 16.7833L20.2491 15.5295Z" fill="#050301"/>
<path d="M16.2632 17.1281C16.4051 16.5967 16.5929 16.0131 16.8896 15.5204C17.2875 14.8586 17.787 14.5063 18.4165 14.4449C18.549 14.4314 18.6814 14.4247 18.8117 14.4247C19.4093 14.4247 19.8788 14.5653 20.1998 14.7067C20.4638 14.823 20.5232 15.183 20.3078 15.3748C20.2705 15.408 20.2604 15.4066 20.2153 15.4278L17.5366 16.685L16.2632 17.1281Z" fill="#050301"/>
<path d="M18.2697 14.8509C17.2713 14.9826 16.6192 15.9797 16.2422 16.9157C16.1406 17.168 16.356 17.4219 16.6275 17.4059C16.6601 17.404 16.7125 17.4073 16.7442 17.4151C17.2274 17.5348 17.7606 17.5756 18.1227 17.5888C18.1399 17.5894 18.1569 17.5913 18.174 17.5931C18.3508 17.6184 18.7736 17.5359 18.9431 17.4794C19.2759 17.3683 19.5915 17.2191 19.8439 16.9751C19.8571 16.9623 19.8696 16.9489 19.881 16.9345C19.9633 16.8305 20.3102 16.3506 20.3102 15.6481C20.3102 15.5076 20.246 15.3733 20.1282 15.2968C19.6097 14.9597 18.9519 14.7662 18.2697 14.8509Z" fill="white"/>
<path d="M19.9562 16.0147C19.9562 15.3489 19.3409 14.8533 18.6754 14.8323C18.5418 14.8281 18.4063 14.8339 18.2697 14.8509C17.8269 14.9094 17.4523 15.1381 17.1397 15.456C16.9922 15.6059 16.8987 15.8044 16.8987 16.0147C16.8987 16.708 17.298 17.3005 17.8629 17.5418C17.932 17.5713 18.0067 17.5844 18.0817 17.5874C18.0956 17.5879 18.1093 17.5884 18.1227 17.5889C18.1399 17.5895 18.157 17.5913 18.1741 17.5931C18.3509 17.6183 18.7737 17.5359 18.9431 17.4793C19.0749 17.4353 19.204 17.3853 19.3273 17.3258C19.3604 17.3099 19.3912 17.2895 19.4183 17.2647C19.7476 16.9633 19.9562 16.5154 19.9562 16.0147Z" fill="#2E9743"/>
<path d="M18.4274 17.4417C19.1608 17.4417 19.7553 16.8026 19.7553 16.0147C19.7553 15.9445 19.7506 15.8756 19.7415 15.8082C19.6521 15.144 18.9348 14.7675 18.2698 14.8509C18.1142 14.8716 17.9671 14.9132 17.8281 14.9722C17.4083 15.1504 17.0991 15.5586 17.0991 16.0147C17.0991 16.8026 17.6937 17.4417 18.4274 17.4417Z" fill="#2E9743"/>
<path d="M19.3667 16.0147C19.3667 16.5722 18.9462 17.0238 18.4272 17.0238C17.9086 17.0238 17.488 16.5722 17.488 16.0147C17.488 15.4572 17.9086 15.0048 18.4272 15.0048C18.9462 15.0048 19.3667 15.4572 19.3667 16.0147Z" fill="#050301"/>
<path d="M19.2432 16.0147C19.2432 16.4991 18.8782 16.8918 18.4273 16.8918C17.9765 16.8918 17.6111 16.4991 17.6111 16.0147C17.6111 15.5304 17.9765 15.1377 18.4273 15.1377C18.8782 15.1377 19.2432 15.5304 19.2432 16.0147Z" fill="#050301"/>
<path d="M19.2432 16.0147C19.2432 16.4991 18.8782 16.8918 18.4273 16.8918C17.9765 16.8918 17.6111 16.4991 17.6111 16.0147C17.6111 15.5304 17.9765 15.1377 18.4273 15.1377C18.8782 15.1377 19.2432 15.5304 19.2432 16.0147Z" fill="#050301"/>
<path d="M18.0728 15.2142C18.0728 15.4253 18.2314 15.5959 18.4274 15.5959C18.6235 15.5959 18.7816 15.4253 18.7816 15.2142C18.7816 15.0149 18.6395 14.8518 18.4575 14.8349C18.4218 14.8366 18.3861 14.8392 18.3503 14.8425C18.1916 14.8804 18.0728 15.0326 18.0728 15.2142Z" fill="white"/>
<path d="M-nan -nanL20.317 15.4185C19.5627 14.729 18.2905 14.5205 17.4357 15.1385C17.0658 15.4059 16.7914 15.7793 16.5744 16.1753C16.3578 16.5706 16.1826 16.9927 16.0559 17.4249C16.0489 17.4493 16.0421 17.4728 16.0355 17.4972C16.0347 17.4998 16.0388 17.5014 16.0399 17.4981C16.3149 16.6732 16.7083 15.8104 17.4193 15.2689C17.809 14.972 18.2607 14.8678 18.7453 14.893C19.3087 14.9224 19.8326 15.1411 20.306 15.4329C20.3144 15.4387 20.3245 15.4261 20.317 15.4185L-nan -nanZM19.862 16.954C19.6754 17.1138 19.4744 17.245 19.2507 17.3459C19.0262 17.4476 18.7882 17.5115 18.5562 17.5922C18.5529 17.5935 18.5588 17.5953 18.5623 17.5946C19.0259 17.5042 19.5437 17.3176 19.8662 16.9582C19.8688 16.9548 19.8646 16.9515 19.862 16.954Z" fill="#050301"/>
<path d="M10.9227 17.0673C10.8208 17.0288 10.7119 17.1041 10.7119 17.213C10.7119 17.2705 10.7435 17.3233 10.7938 17.3511C10.9307 17.4268 11.2216 17.5916 11.5321 17.7914C11.6145 17.8444 11.7211 17.8422 11.8001 17.7843C11.9494 17.6748 11.9178 17.4434 11.7447 17.378L10.9227 17.0673Z" fill="#050301"/>
<path d="M10.5823 16.2391C10.5583 16.2824 10.5054 16.2998 10.4615 16.2768C10.4092 16.2495 10.334 16.2078 10.2464 16.1523C10.0467 16.026 10.1652 15.9122 10.3749 16.0209C10.4249 16.0468 10.4736 16.0692 10.5202 16.087C10.5808 16.1101 10.6138 16.1824 10.5823 16.2391Z" fill="#050301"/>
<path d="M10.6018 16.2747C10.5317 16.2454 10.5454 16.2472 10.473 16.2243C10.1922 16.1355 10.0211 15.7424 10.1156 15.4635C10.2128 15.1765 10.4195 14.8274 10.8585 14.6576C11.5174 14.4028 12.0469 14.9199 12.3241 15.4733C12.4804 15.7852 12.5466 16.1275 12.6033 16.4697C12.6555 16.7841 12.237 17.014 11.9684 16.8424C11.9356 16.8214 11.9116 16.8081 11.9001 16.8052C11.8297 16.7871 10.9154 16.4059 10.6018 16.2747Z" fill="#050301"/>
<path d="M12.5532 17.1348C12.0123 16.7228 11.949 16.7076 11.9262 16.7017C11.8553 16.6816 11.0373 16.3418 10.5385 16.1325L10.5296 16.1291C10.5227 16.1274 10.5158 16.1259 10.509 16.1238C10.495 16.1196 10.4674 16.11 10.4296 16.0913C10.2207 15.988 10.1375 15.7348 10.2095 15.5131C10.2963 15.246 10.4853 14.9161 10.8969 14.7568C10.9995 14.7173 11.1024 14.6971 11.2027 14.6971C11.7724 14.6971 12.1325 15.3277 12.2293 15.5203C12.3796 15.8205 12.4426 16.1493 12.4987 16.4865C12.5045 16.5218 12.5099 16.6067 12.5156 16.6959C12.5267 16.875 12.5382 17.0196 12.5532 17.1348Z" fill="#050301"/>
<path d="M10.4716 16.1234C10.4598 16.2098 10.4678 16.2976 10.4889 16.3822C10.5839 16.7142 10.7497 16.9762 10.8281 17.0883C10.8562 17.1284 10.8862 17.1671 10.9174 17.2049C11.107 17.4346 11.2655 17.5285 11.5411 17.657C11.9699 17.8577 12.7011 16.8182 12.573 16.3624C12.5015 16.1081 12.3994 15.8576 12.2426 15.6161C11.727 14.8231 10.6532 14.7892 10.4716 16.1234Z" fill="white"/>
<path d="M11.2686 15.0671C11.0682 15.3479 10.9532 15.7658 10.9786 16.2267C11.0232 17.0364 11.484 17.6696 12.0082 17.641C12.629 17.6056 12.7138 16.7245 12.5014 16.14C12.4368 15.9621 12.3533 15.7868 12.2424 15.6162C11.9935 15.2336 11.6145 15.0276 11.2686 15.0671Z" fill="#2E9743"/>
<path d="M11.1026 16.2199C11.1413 16.9238 11.5419 17.4737 11.9972 17.4485C12.6484 17.4137 12.6702 16.4336 12.3771 15.8511C12.3372 15.772 12.2925 15.6936 12.2422 15.6162C11.909 15.105 11.1602 15.3342 11.1069 15.942C11.099 16.0318 11.0974 16.1248 11.1026 16.2199Z" fill="#2E9743"/>
<path d="M11.8778 15.2739C11.5558 15.2916 11.3169 15.7095 11.3444 16.2065C11.3719 16.7043 11.6551 17.0936 11.977 17.0759C12.1459 17.0665 12.2919 16.947 12.3885 16.7637C12.5788 16.403 12.4643 15.9583 12.2425 15.6162C12.1635 15.4947 12.0714 15.3915 11.9714 15.3077C11.945 15.2856 11.9122 15.2723 11.8778 15.2739Z" fill="#050301"/>
<path d="M12.4342 16.1467C12.4579 16.5789 12.2505 16.9422 11.9706 16.9573C11.6906 16.9724 11.4447 16.6353 11.4208 16.2022C11.397 15.77 11.6045 15.4076 11.8844 15.3916C12.1641 15.3764 12.4103 15.7145 12.4342 16.1467Z" fill="#050301"/>
<path d="M12.4342 16.1467C12.4579 16.5789 12.2505 16.9422 11.9706 16.9573C11.6906 16.9724 11.4447 16.6353 11.4208 16.2022C11.397 15.77 11.6045 15.4076 11.8844 15.3916C12.1641 15.3764 12.4103 15.7145 12.4342 16.1467Z" fill="#050301"/>
<path d="M11.668 15.4724C11.6784 15.6607 11.7853 15.807 11.9068 15.8012C12.0284 15.7944 12.1187 15.6363 12.1083 15.4488C12.1081 15.4428 12.1054 15.4371 12.1014 15.4327C12.0705 15.3987 12.0384 15.3669 12.0054 15.3372C11.8747 15.2198 11.6688 15.263 11.6673 15.4386C11.6672 15.4498 11.6674 15.461 11.668 15.4724Z" fill="white"/>
<path d="M12.6797 16.7808C12.6302 16.494 12.5573 16.2098 12.442 15.9416C12.2943 15.5993 12.0602 15.2327 11.6979 15.0864C11.4323 14.9787 11.1219 14.993 10.8917 15.1747C10.5819 15.4202 10.4821 15.8457 10.4572 16.2207C10.4565 16.2317 10.4558 16.2434 10.4551 16.2544C10.4549 16.2569 10.4583 16.2561 10.4585 16.2544C10.5046 15.8827 10.6212 15.469 10.9417 15.2394C11.1738 15.0738 11.4604 15.0788 11.7125 15.194C12.0665 15.3571 12.2864 15.6809 12.4382 16.029C12.5488 16.283 12.6133 16.5512 12.6602 16.8228C12.7061 17.0894 12.7157 17.3652 12.7766 17.6276C12.7786 17.6368 12.7932 17.6351 12.7928 17.625C12.7778 17.345 12.7274 17.0574 12.6797 16.7808ZM11.5448 17.6502C11.4282 17.5813 11.3059 17.5216 11.1932 17.4459C11.0709 17.3635 10.9701 17.255 10.874 17.1449C10.8712 17.1415 10.8655 17.1457 10.8681 17.1491C11.0383 17.3904 11.2595 17.5653 11.5388 17.6645C11.5474 17.6679 11.5522 17.6553 11.5448 17.6502Z" fill="#050301"/>
<path d="M22.1721 25.1224C22.2537 24.4329 22.5463 23.8089 22.9474 23.2497C23.6656 22.2466 24.6671 21.4923 25.4399 20.5345C26.317 19.4472 26.7669 18.1111 26.9788 16.7429C26.9965 16.6294 27.0133 16.5151 27.0284 16.3999C27.0335 16.362 27.0377 16.3233 27.0427 16.2846C27.052 16.2081 27.0621 16.1325 27.0705 16.0568C27.0764 16.0055 27.0806 15.9542 27.0865 15.9029C27.0923 15.8398 27.0991 15.7759 27.105 15.7128C27.11 15.654 27.115 15.5951 27.1192 15.5371C27.1235 15.4808 27.1285 15.4244 27.1327 15.3681C27.1369 15.305 27.1403 15.2419 27.1436 15.1789C27.147 15.1267 27.1504 15.0755 27.1529 15.0233C27.1562 14.9577 27.1579 14.8913 27.1604 14.8257C27.1621 14.7761 27.1647 14.7273 27.1655 14.6786C27.168 14.6113 27.1689 14.544 27.1697 14.4767C27.1705 14.4288 27.1714 14.3809 27.1714 14.3321C27.1714 14.2657 27.1714 14.1992 27.1705 14.1328C27.1705 14.0983 27.1705 14.0647 27.1697 14.0319C27.1697 13.9941 27.1697 13.9562 27.1689 13.9192C27.1209 11.5833 26.8577 9.22455 25.8133 7.09878C23.4436 2.27461 16.6575 1.33114 12.4374 4.20025C11.3714 4.92509 10.3666 5.81812 9.56707 6.83055C9.04587 7.48981 8.56924 8.21718 8.15677 8.94959C7.01085 10.9829 6.93306 13.302 6.16909 15.4572C5.71155 16.7481 4.90592 17.8084 4.05278 18.8398C2.20104 21.0785 1.95096 24.1916 3.84033 26.3987C5.93736 28.8483 8.76172 30.6569 11.9789 31.4895C13.1934 31.8038 14.5888 31.5284 15.1836 30.4238C15.8517 29.1829 15.873 27.6558 15.7806 26.1504C15.7593 25.8043 15.456 25.554 15.1108 25.521C13.6293 25.3814 12.8573 23.6929 11.5817 22.0767C11.0445 21.3965 10.6129 20.7155 10.2932 20.0701C10.2704 20.0242 10.2573 19.9743 10.2547 19.9232C10.2541 19.9123 10.2538 19.9013 10.2533 19.8895C10.2527 19.8761 10.2522 19.8626 10.2517 19.8492C10.2497 19.8046 10.2478 19.76 10.2466 19.7155C10.2461 19.7012 10.246 19.686 10.2456 19.6718C10.2454 19.6617 10.2453 19.6524 10.2449 19.6432C10.244 19.5969 10.243 19.5507 10.2427 19.5044C10.2425 19.4893 10.2427 19.4741 10.2425 19.459C10.2425 19.4506 10.2425 19.443 10.2425 19.4355C10.2423 19.3875 10.2423 19.3396 10.2429 19.2917C10.243 19.2748 10.2436 19.2572 10.2439 19.2395C10.244 19.2353 10.244 19.2303 10.2442 19.2261C10.2449 19.1765 10.2459 19.126 10.2475 19.0764C10.248 19.0571 10.2491 19.0386 10.2497 19.0192C10.2515 18.973 10.253 18.9267 10.2553 18.8796C10.2591 18.8056 10.2635 18.7316 10.2688 18.6568C10.4724 15.7817 12.3963 13.2875 14.0182 11.192C14.7865 10.1993 17.7774 10.2375 18.7723 11.003C20.4306 12.2787 21.5364 12.6613 22.0039 14.1067C22.0174 14.148 22.03 14.1875 22.0418 14.227C22.046 14.2405 22.0502 14.2531 22.0535 14.2657C22.062 14.2917 22.0695 14.3178 22.0771 14.343C22.0813 14.3565 22.0855 14.3708 22.0889 14.3842C22.0964 14.4095 22.104 14.4347 22.1107 14.4591C22.1141 14.47 22.1166 14.4818 22.12 14.4927C22.1292 14.5272 22.1385 14.56 22.1469 14.592C22.1494 14.602 22.1519 14.6121 22.1545 14.6214C22.1603 14.6449 22.1662 14.6676 22.1721 14.6895C22.1746 14.7021 22.178 14.7156 22.1814 14.7282C22.1864 14.7467 22.1906 14.7652 22.1948 14.7828C22.1973 14.7954 22.2007 14.8081 22.2032 14.8198C22.2074 14.8392 22.2125 14.8585 22.2167 14.877C22.2184 14.8862 22.2209 14.8963 22.2226 14.9056C22.2285 14.9317 22.2335 14.9577 22.2394 14.9821C22.2411 14.9939 22.2436 15.0048 22.2461 15.0157C22.2486 15.03 22.252 15.0452 22.2545 15.0595C22.2571 15.0704 22.2587 15.0822 22.2613 15.0931C22.2638 15.1066 22.2663 15.12 22.2688 15.1326C22.2705 15.1427 22.2722 15.1537 22.2747 15.1646C22.2772 15.1797 22.2798 15.194 22.2823 15.2092C22.2848 15.2209 22.2865 15.2335 22.2882 15.2453C22.2907 15.2596 22.2932 15.2747 22.2957 15.289C22.2974 15.2983 22.2991 15.3075 22.3008 15.3168C22.3025 15.3269 22.3041 15.3378 22.3058 15.3479C22.3075 15.3571 22.3083 15.3672 22.31 15.3757C22.3117 15.3866 22.3134 15.3975 22.3151 15.4076C22.3168 15.4211 22.3193 15.4337 22.321 15.4455C22.3235 15.4614 22.326 15.4766 22.3277 15.4908C22.3294 15.4993 22.331 15.5085 22.3319 15.5161C22.3336 15.5236 22.3344 15.5312 22.3361 15.538C22.3369 15.5455 22.3378 15.5522 22.3395 15.5598C22.3403 15.5665 22.342 15.5741 22.3428 15.5808C22.3437 15.5876 22.3454 15.5934 22.347 15.6002C22.3479 15.606 22.3487 15.6128 22.3504 15.6195C22.3521 15.6304 22.3546 15.6405 22.3571 15.6506C22.358 15.6565 22.3596 15.6616 22.3605 15.6666C22.3612 15.6692 22.3618 15.6717 22.3624 15.674C22.3637 15.6798 22.365 15.6856 22.3666 15.6912C22.3667 15.6918 22.3669 15.6923 22.3671 15.6929C22.3682 15.6967 22.3692 15.7008 22.3703 15.7045C22.372 15.7097 22.3735 15.7147 22.375 15.72C22.3757 15.7224 22.3765 15.7248 22.3773 15.7271C22.379 15.7314 22.3807 15.7356 22.3823 15.7398C22.3849 15.7473 22.3874 15.7541 22.3908 15.7608C22.3924 15.765 22.3941 15.7692 22.3958 15.7725C22.3968 15.7751 22.3981 15.7776 22.3996 15.78C22.4014 15.783 22.4033 15.7859 22.4051 15.7889C22.4068 15.792 22.4086 15.795 22.4105 15.7979C22.4107 15.7982 22.4108 15.7984 22.4109 15.7986C22.4131 15.802 22.4152 15.8055 22.4177 15.8087C22.4186 15.8099 22.4195 15.811 22.4202 15.8121C22.4227 15.8154 22.4252 15.818 22.4286 15.8222C22.4656 15.8625 22.5177 15.8835 22.5993 15.8928C22.9819 15.9357 22.9819 15.1705 23.6202 14.787C23.8505 14.6488 24.0254 14.5772 24.1789 14.5522C24.5196 14.4966 24.854 14.7459 24.9354 15.0813C24.9413 15.1057 24.9463 15.131 24.9505 15.1562C25.0203 15.5615 24.9488 15.9912 24.8319 16.3814C24.7176 16.764 24.5603 17.1491 24.3181 17.4703C24.1458 17.699 23.9406 17.9042 23.7472 18.1144C23.6328 18.2389 23.5193 18.3642 23.4175 18.4996C23.3376 18.6055 23.2695 18.7199 23.1888 18.8241C23.0568 18.9932 22.8877 19.1697 22.6741 19.2269C22.5113 19.2717 22.3448 19.3653 22.3004 19.5283C22.1305 20.1517 21.9308 20.773 21.6592 21.3577C21.5617 21.5669 21.4474 21.7736 21.3185 21.9765C20.9716 22.5223 20.7093 23.1322 20.7232 23.7787C20.751 25.0862 20.8838 27.0833 21.4035 27.9873C21.4178 28.0108 21.4313 28.0344 21.4447 28.0579C21.4489 28.0647 21.4523 28.0714 21.4565 28.0781C21.4666 28.0949 21.4758 28.1117 21.4859 28.1277C21.4901 28.1353 21.4943 28.1429 21.4985 28.1496C21.5078 28.1664 21.5179 28.1824 21.5271 28.1984C21.5305 28.2042 21.5347 28.211 21.5381 28.2169C21.549 28.2345 21.5591 28.2522 21.57 28.2698C21.5725 28.274 21.5751 28.2782 21.5776 28.2824C21.6323 28.3724 21.6852 28.4582 21.7374 28.5398C22.1655 29.2088 22.5272 29.5842 23.0945 29.92C23.3416 30.0664 23.6491 30.0578 23.8988 29.9159C24.4086 29.6263 24.454 28.9224 23.9521 28.6193C23.7889 28.5208 23.6205 28.4299 23.4495 28.3506C22.2175 27.7788 22.03 26.3307 22.1721 25.1224Z" fill="#9A1638"/>
</svg>
