<svg width="24" height="24" viewBox="0 0 24 24" fill="none" xmlns="http://www.w3.org/2000/svg">
<path d="M24.0001 12C24.0001 18.6278 18.6275 24 12.0001 24C5.37266 24 0 18.6278 0 12C0 5.37278 5.37266 0 12.0001 0C18.6275 0 24.0001 5.37278 24.0001 12Z" fill="#7FD5EC"/>
<path d="M16.6152 21.5113C16.1112 20.2947 16.661 17.0209 16.661 17.0209L8.36845 16.4596C8.36845 16.4596 8.46003 20.7627 8.13945 21.6047C7.99465 21.9843 7.35526 22.4119 6.69714 22.767C8.2963 23.556 10.0962 24 12.0001 24C14.0326 24 15.9467 23.4942 17.6244 22.6024C17.1797 22.294 16.7864 21.9238 16.6152 21.5113Z" fill="#964539"/>
<path d="M8.49424 17.27C8.27653 17.5746 7.99366 17.8792 7.60188 17.8357C7.62364 17.7052 7.62365 17.5746 7.58013 17.4441C7.55837 17.6181 7.40606 17.7266 7.34066 17.8572C7.27544 17.5311 7.21004 17.0524 6.90542 16.8342C6.6225 16.6387 6.25254 16.6822 5.96955 16.4646C6.03489 16.1379 5.94786 15.8333 5.73021 15.5943C5.46904 15.3325 5.25139 15.1805 5.09902 14.8538C5.01192 14.7018 4.99023 14.5713 4.88137 14.4401C5.07726 13.9179 5.33843 13.1125 4.68555 12.7865C4.68555 12.6559 4.70718 12.5033 4.75082 12.3727C4.75082 12.3727 6.31781 12.5468 6.49188 12.5903C6.66601 12.6339 7.92833 13.3307 7.92833 13.3307L8.49424 17.27Z" fill="#050301"/>
<path d="M4.74342 12.3709C4.70539 12.4825 4.68212 12.596 4.66976 12.7133C4.65885 12.8149 4.68905 12.8218 4.76783 12.876C4.92991 12.9883 5.02105 13.1586 5.05246 13.3503C5.11193 13.7123 4.98289 14.0983 4.8601 14.4344C4.85739 14.442 4.86085 14.4502 4.86584 14.4559C4.99727 14.6047 5.05189 14.8179 5.15217 14.9876C5.24103 15.1389 5.3637 15.2644 5.48939 15.3849C5.63205 15.5211 5.77642 15.6454 5.87127 15.8219C5.97477 16.0143 5.99987 16.2477 5.94834 16.4589C5.94575 16.469 5.95017 16.4772 5.95849 16.4835C6.26374 16.7081 6.70125 16.6513 6.97642 16.9206C7.21797 17.1577 7.26073 17.5475 7.32279 17.8622C7.32588 17.8786 7.34953 17.8805 7.35691 17.8666C7.43587 17.7222 7.56838 17.6181 7.59777 17.4485C7.5861 17.4485 7.5743 17.4485 7.56245 17.4485C7.60092 17.5765 7.60401 17.6995 7.58446 17.8307C7.58269 17.8433 7.58925 17.8528 7.60193 17.854C8.00272 17.8881 8.29934 17.5847 8.50425 17.2757C8.51137 17.2649 8.49415 17.2511 8.48608 17.2618C8.26345 17.5469 7.99957 17.8521 7.60193 17.8174C7.60773 17.825 7.6136 17.8326 7.61933 17.8401C7.63989 17.7033 7.63794 17.5721 7.59777 17.439C7.59297 17.4226 7.56573 17.4201 7.56245 17.439C7.53337 17.6049 7.40168 17.7064 7.32468 17.8477C7.33597 17.8496 7.34738 17.8509 7.3588 17.8521C7.27107 17.4106 7.19722 16.9137 6.73215 16.7219C6.60822 16.6709 6.47464 16.6456 6.3458 16.6103C6.27163 16.5907 6.19916 16.5655 6.12903 16.534C6.09768 16.5201 6.06811 16.5031 6.03865 16.4854C5.98959 16.4564 5.99949 16.4097 6.00447 16.3606C6.02957 16.1165 5.95641 15.856 5.80644 15.6624C5.62877 15.4328 5.38136 15.2707 5.2153 15.0286C5.1347 14.9112 5.07592 14.7763 5.02048 14.6457C4.99285 14.5808 4.96195 14.519 4.92228 14.4603C4.89296 14.4174 4.94625 14.3304 4.96214 14.2869C5.09748 13.9116 5.23561 13.4733 5.05233 13.0898C5.00181 12.9839 4.92014 12.8987 4.82705 12.8294C4.77104 12.7877 4.704 12.7877 4.70577 12.7133C4.70842 12.5985 4.72652 12.485 4.75837 12.3753C4.7612 12.3652 4.74651 12.3614 4.74342 12.3709Z" fill="#050301"/>
<path d="M18.4621 12.1337L18.0836 12.2933L18.3751 9.15184C18.3461 9.03579 18.0269 7.93337 17.8527 7.81669C17.6786 7.70064 16.2277 7.06239 15.6183 6.94635C15.0089 6.8303 13.3258 6.77227 12.8326 6.71425C12.3392 6.65623 10.5111 6.62721 9.78561 6.88832C9.06013 7.14942 8.07349 7.90373 7.78331 8.33953C7.49314 8.7747 6.85476 10.4574 6.85476 10.4574L5.49084 12.83C5.49084 12.83 5.55612 13.8094 5.68674 14.3752C5.81729 14.9409 6.2961 15.7248 6.2961 15.7248C6.53545 16.0074 7.10136 16.1165 7.47138 16.0509C7.47138 16.0509 7.66727 16.2685 7.7543 16.6387C7.8414 17.0089 8.03716 18.2494 8.27657 18.7061C8.51598 19.1633 10.6054 20.7734 11.4977 21.4047C11.4977 21.4047 12.1723 22.0361 13.87 22.014C15.5675 21.9925 16.0899 20.839 16.0899 20.839C16.0899 20.839 16.6557 19.7511 16.9604 19.2938C17.2652 18.8366 17.5262 18.2494 17.6133 17.6181C17.6932 17.0385 17.8635 16.4753 17.9341 15.8945C17.948 15.7803 17.9575 15.6643 17.964 15.5482C18.0941 15.4398 18.2448 15.2884 18.3098 15.137C18.4621 14.7233 18.3969 14.179 18.4185 13.7438L18.4403 13.7003C18.4621 13.5698 18.5056 13.4613 18.5709 13.3522C18.6797 12.917 18.6145 12.5468 18.4621 12.1337Z" fill="#AB5348"/>
<path d="M18.0268 15.137C18.0268 15.137 18.2226 14.8324 18.2443 14.4187C18.2661 14.0049 18.2661 13.6789 18.2661 13.6789L18.4838 13.1567L18.462 12.7644C18.462 12.7644 18.092 13.3522 18.0485 14.0484C18.0485 14.0484 18.092 14.4187 17.9614 14.5492L18.0268 15.137Z" fill="#AB5348"/>
<path d="M8.2766 18.7061C8.51601 19.1633 10.6054 20.7734 11.4977 21.4047C11.4977 21.4047 12.1723 22.0361 13.87 22.014C15.5675 21.9925 16.0899 20.839 16.0899 20.839C16.0899 20.839 16.6557 19.7511 16.9605 19.2938C17.2652 18.8366 17.5263 18.2494 17.6134 17.6181C17.6933 17.0385 17.8635 16.4753 17.9341 15.8945C17.9481 15.7803 17.9575 15.6643 17.964 15.5482C17.9673 15.5457 17.9706 15.5425 17.9739 15.54L17.9397 15.4776C17.8528 15.9418 17.3595 16.6677 17.1854 17.1899C17.0112 17.7121 16.634 18.8152 16.634 18.8152C16.6629 18.322 16.692 17.7411 16.692 17.7411L16.4019 17.538C16.4019 17.538 16.2277 17.6541 16.1697 17.567C16.1117 17.48 15.9376 17.393 15.7344 17.3349C15.5313 17.2769 15.0089 17.0448 14.8348 17.0448C14.6607 17.0448 14.3416 17.364 14.1384 17.422C13.9353 17.48 13.7321 17.1609 13.442 17.1029C13.1518 17.0448 12.8617 17.1609 12.5423 17.2479C12.2231 17.335 11.904 17.364 11.7008 17.393C11.4977 17.422 11.4977 17.6251 11.2947 17.538C11.0915 17.451 11.0044 17.567 10.8303 17.8281C10.6562 18.0893 10.453 18.8732 10.453 18.8732C10.453 18.8732 9.93069 18.2053 9.72755 17.9152C9.52447 17.6251 8.07352 15.8844 8.07352 15.8844L7.5802 15.5943C7.69625 15.8844 7.75433 16.5516 7.75433 16.5516C7.75433 16.5516 7.74922 16.563 7.73989 16.5832C7.74493 16.6015 7.74979 16.6198 7.75433 16.6387C7.84143 17.0089 8.03719 18.2494 8.2766 18.7061ZM11.1495 18.7496C11.1495 18.7496 11.28 18.4014 11.6065 18.3365C11.933 18.2709 12.6077 18.0312 12.8036 17.9663C12.9994 17.9007 13.5869 17.9663 13.8047 17.9663C14.0223 17.9663 14.1093 17.7487 14.1093 17.7487C14.1093 17.7487 14.2617 17.9442 14.3923 17.9663C14.5229 17.9877 14.8275 17.9442 14.9799 18.0098C15.1322 18.0747 16.0247 18.0747 16.1334 18.1403C16.2422 18.2053 16.3293 18.4229 16.2204 18.6846C16.2204 18.6846 15.8505 19.0763 15.8287 19.2283C15.8069 19.3809 15.8505 20.1863 15.067 20.2077C15.067 20.2077 14.5011 20.5123 14.1312 20.5123C13.7611 20.5123 12.9559 20.3168 12.9559 20.3168C12.9559 20.3168 12.1941 20.4253 11.8894 19.9252C11.5848 19.4244 11.7806 19.4458 11.4106 19.1633C11.4106 19.1633 11.1277 19.0107 11.1495 18.7496Z" fill="#5C4545"/>
<path d="M7.14481 15.3325C7.14481 15.3325 6.55727 15.3981 6.33955 15.0714C6.12191 14.7454 6.01311 14.3537 5.94784 14.0485C5.8825 13.7439 5.75195 13.3957 5.75195 13.3957H5.57775C5.57775 13.3957 5.40368 12.9385 5.59957 12.8079C5.79546 12.6774 6.33955 12.6774 6.33955 12.6774L6.66599 13.4392C6.66599 13.4392 6.84019 14.005 6.94898 14.1141C7.05777 14.2225 7.10129 14.3752 7.05777 14.5057C7.01426 14.6363 6.97068 14.9194 7.14481 15.3325Z" fill="#AB5348"/>
<path d="M5.5343 13.1346C5.5343 13.1346 5.99142 13.2109 6.02396 13.2544C6.05657 13.298 5.94784 13.853 6.10015 14.1904C6.10015 14.1904 6.08924 13.6568 6.13282 13.537C6.13282 13.537 6.39399 13.5156 6.47024 13.8202C6.47024 13.8202 6.20895 14.4187 6.37223 14.7347C6.37223 14.7347 6.40483 14.2011 6.5246 14.1576C6.64418 14.1141 6.80753 14.4622 6.80753 14.4622C6.80753 14.4622 6.68776 14.8324 7.03602 15.0065C7.03602 15.0065 6.94899 14.7347 6.9925 14.6798C7.03602 14.6255 7.13396 14.408 7.09038 14.3317C7.04687 14.2553 6.92723 14.0378 6.92723 14.0378C6.92723 14.0378 6.67685 13.5048 6.666 13.3743C6.65515 13.2437 6.38314 13.0041 6.38314 13.0041L5.5343 12.8735V13.1346Z" fill="#AB5348"/>
<path d="M7.60192 12.8514C7.60192 12.8514 7.77599 11.9376 8.16771 11.633C8.55955 11.3283 9.19062 11.0887 9.40839 10.1748C9.62591 9.26097 9.93066 8.06393 10.823 7.78075C11.7152 7.49757 13.2823 7.71517 13.2823 7.71517C13.2823 7.71517 14.1963 7.88923 14.6533 7.75868C15.1105 7.62813 16.1551 7.84572 16.1551 7.84572C16.1551 7.84572 17.3522 8.17241 17.178 11.0887L17.5698 11.5894C17.5698 11.5894 18.0051 11.9161 17.9615 12.3728L18.1574 11.785L18.0269 10.697C18.0269 10.697 17.9615 8.54262 17.831 8.45558C17.7003 8.36855 17.1563 7.75868 16.8951 7.62813C16.6339 7.49758 15.8069 6.99745 15.4369 6.97537C15.0669 6.95393 13.4564 6.93186 12.9123 6.93186C12.3682 6.93186 11.0188 6.97537 10.5835 7.128C10.1483 7.27999 8.99479 8.06393 8.99479 8.06393C8.99479 8.06393 8.25487 9.30385 8.1025 9.58703C7.95013 9.87021 7.49313 11.3284 7.44955 11.4803C7.4061 11.633 7.38428 12.0025 7.38428 12.0025L7.60192 12.8514Z" fill="#AB5348"/>
<path d="M8.77725 13.0255C8.77725 13.0255 7.81955 12.5033 8.29837 11.8505C8.29837 11.8505 9.27776 11.3498 9.73487 11.3933C10.1919 11.4368 12.2813 12.0467 12.2813 12.0467L12.6295 12.0025L12.8689 11.8291C12.8689 11.8291 12.9559 12.9605 11.9983 13.2866L11.1277 13.1567L9.58244 13.1781L8.77725 13.0255Z" fill="#AB5348"/>
<path d="M14.7406 13.3087C14.7406 13.3087 14.6317 12.3078 14.8494 11.8726C14.8494 11.8726 15.1323 12.1337 15.3935 12.0246C15.6547 11.9161 16.3729 11.6109 16.3729 11.6109L17.0041 11.4154L17.461 11.5674L17.8092 11.8505C17.8092 11.8505 17.8963 12.7644 17.461 13.0255L16.8952 13.1996L16.1117 13.2437L15.35 13.1996L15.0016 13.2437L14.7406 13.3087Z" fill="#AB5348"/>
<path d="M12.4698 15.5066C12.7684 15.0866 13.0092 14.5776 13.065 14.0705C13.0892 13.8498 13.1354 13.5553 13.0493 13.3453C12.9308 13.0551 12.5513 13.3326 12.3787 13.4613C12.2096 13.5868 12.0566 13.7275 11.9054 13.8738C11.7653 14.0087 11.5919 14.1185 11.472 14.2736C11.3716 14.4035 11.3011 14.5442 11.2687 14.7056C11.234 14.8797 11.2365 15.0733 11.3058 15.2354C11.3642 15.3716 11.4844 15.494 11.5735 15.6081C11.7569 15.8434 11.9838 16.0566 12.1763 16.2893C12.1159 16.2161 12.2008 15.9222 12.2412 15.8503C12.3052 15.7374 12.4 15.6233 12.4698 15.5066Z" fill="#AB5348"/>
<path d="M15.4878 15.5943C15.4379 15.4404 15.2148 15.3281 15.1215 15.1906C15.0081 15.0241 15.0248 14.8564 14.9944 14.6653C14.938 14.3109 14.8638 13.9835 14.7903 13.5389C15.0912 13.9034 15.5887 14.1134 15.8331 14.5202C16.0498 14.881 16.0872 15.6656 15.6329 15.8844L15.4878 15.5943Z" fill="#AB5348"/>
<path d="M10.2064 13.8094C10.2064 13.8094 11.4252 13.6064 11.6864 13.3888L11.933 13.4613C11.933 13.4613 11.1205 13.8965 10.2064 13.8094Z" fill="#AB5348"/>
<path d="M16.2132 13.8094C16.2132 13.8094 15.271 13.6064 15.0691 13.3888L14.8783 13.4613C14.8783 13.4613 15.5065 13.8965 16.2132 13.8094Z" fill="#AB5348"/>
<path d="M13.3084 15.4763C13.3186 15.5533 13.3331 15.6296 13.3529 15.7059C13.4514 16.0843 13.7063 16.5706 14.1673 16.5516C14.8638 16.5226 15.0089 16.1455 14.9654 15.4341C14.9218 14.7233 14.6752 13.94 14.6316 13.6354C14.5881 13.3307 14.6171 12.6193 14.6171 12.6193L13.3839 12.6919C13.3839 12.6919 13.2968 13.3888 13.3258 13.9835C13.35 14.4786 13.2426 14.9838 13.3084 15.4763Z" fill="#AB5348"/>
<path d="M13.2388 15.1875C13.2388 15.1875 14.1529 14.7958 15.009 15.115L14.9944 14.9409C14.9944 14.9409 14.0949 14.6943 13.1953 15.0424L13.2388 15.1875Z" fill="#AB5348"/>
<path d="M12.165 16.16C12.3215 16.6065 13.0493 15.7942 12.731 15.4776C12.5677 15.3155 12.437 15.5445 12.3572 15.67C12.2577 15.827 12.2299 15.955 12.1795 16.131L12.165 16.16Z" fill="#AB5348"/>
<path d="M15.5166 15.6813C15.6022 15.8238 15.6343 15.9657 15.6328 16.131C15.6314 16.2716 15.5862 16.4615 15.4332 16.3019C15.3302 16.1947 15.3062 15.9929 15.299 15.8547C15.2927 15.7318 15.3818 15.4347 15.5166 15.6523V15.6813Z" fill="#AB5348"/>
<path d="M7.75427 14.4187L7.53662 14.9844C7.58014 16.2905 7.14485 15.9418 7.14485 15.9418C7.14485 15.9418 7.14176 15.9872 7.13696 16.0654C7.25591 16.073 7.37095 16.0685 7.47135 16.0509C7.47135 16.0509 7.66724 16.2685 7.75427 16.6387C7.74973 16.6198 7.74488 16.6015 7.73983 16.5832C7.74917 16.563 7.75427 16.5516 7.75427 16.5516C7.75427 16.5516 7.69619 15.8844 7.58014 15.5943L8.07346 15.8844C8.07346 15.8844 9.52441 17.6251 9.72749 17.9152C9.78236 17.994 9.86044 18.0993 9.94514 18.2122C9.65793 17.4907 9.34631 16.8027 9.10356 16.5081C8.49425 15.7677 7.75427 14.4187 7.75427 14.4187ZM17.9615 15.1042C17.8745 15.6264 17.0692 16.8998 17.0692 16.8998C17.0066 17.4838 16.8341 18.1372 16.6379 18.7464C16.6366 18.7691 16.6352 18.7925 16.6339 18.8152C16.6339 18.8152 17.0112 17.7121 17.1853 17.1899C17.3594 16.6677 17.8527 15.9418 17.9397 15.4776L17.9739 15.54C18.0476 15.4776 18.1265 15.4019 18.1927 15.3212C18.0217 15.3344 17.9615 15.1042 17.9615 15.1042Z" fill="#AB5348"/>
<path d="M10.7577 20.4688C10.7577 20.4688 10.3794 19.3027 9.9452 18.2122C9.86049 18.0993 9.78242 17.994 9.72755 17.9152C9.52447 17.6251 8.07352 15.8844 8.07352 15.8844L7.5802 15.5943C7.69625 15.8844 7.75433 16.5516 7.75433 16.5516C7.75433 16.5516 7.74922 16.563 7.73989 16.5832C7.74493 16.6015 7.74979 16.6197 7.75433 16.6387C7.84143 17.0089 8.03719 18.2494 8.2766 18.706C8.51601 19.1633 10.6054 20.7734 11.4977 21.4047C11.4977 21.4047 11.8343 21.7188 12.6288 21.8967C12.6035 21.8847 12.5755 21.8727 12.5423 21.862C11.8894 21.6444 10.7577 20.4688 10.7577 20.4688ZM17.9397 15.4776C17.8528 15.9418 17.3595 16.6677 17.1854 17.1899C17.0112 17.7121 16.634 18.8152 16.634 18.8152C16.6353 18.7925 16.6367 18.7691 16.638 18.7464C16.4247 19.408 16.1833 20.0172 16.0247 20.4253C15.7719 21.0749 15.4597 21.4848 15.3603 21.6066C15.8954 21.2666 16.0899 20.839 16.0899 20.839C16.0899 20.839 16.6557 19.7511 16.9605 19.2938C17.2652 18.8366 17.5263 18.2494 17.6134 17.6181C17.6933 17.0385 17.8635 16.4753 17.9341 15.8945C17.9481 15.7803 17.9575 15.6643 17.964 15.5482C17.9673 15.5457 17.9706 15.5425 17.9739 15.54L17.9397 15.4776Z" fill="#4D3A39"/>
<path d="M13.442 17.1029C13.7321 17.1609 13.9352 17.48 14.1384 17.422C14.3415 17.364 14.6607 17.0449 14.8348 17.0449C14.8789 17.0449 14.9452 17.06 15.023 17.0827C15.1443 16.9578 15.212 16.8563 15.212 16.8563C15.3861 16.8128 15.5023 16.5662 15.5023 16.5662C15.3425 16.3196 14.9364 16.3196 14.9364 16.3196C14.6607 16.8128 14.1819 16.7112 13.9062 16.6677C13.6305 16.6242 13.4274 16.3341 13.0792 16.3051C12.731 16.2761 12.2957 16.5082 12.2957 16.5082C12.3246 16.6822 12.4843 16.7693 12.4843 16.7693C12.5583 16.9074 12.6862 17.0424 12.8494 17.1597C13.0527 17.1035 13.2473 17.0638 13.442 17.1029Z" fill="#AB5348"/>
<path d="M12.8326 16.5227C13.0792 16.8418 13.3694 16.6242 13.3694 16.6242C13.1083 16.4646 12.8326 16.5227 12.8326 16.5227ZM14.7913 16.5952L14.7333 16.6822C15.067 16.8273 15.2121 16.6097 15.2121 16.6097C14.9799 16.4936 14.7913 16.5952 14.7913 16.5952Z" fill="#050301"/>
<path d="M12.2131 16.3006C12.1274 16.0055 12.3147 15.7147 12.4812 15.4877C12.4843 15.4833 12.4772 15.4776 12.4736 15.482C12.2742 15.7059 12.1115 16.0036 12.1697 16.3126C12.2287 16.6267 12.5337 16.7932 12.8017 16.9061C12.8083 16.9086 12.8131 16.8973 12.8067 16.8941C12.5541 16.7736 12.2946 16.5813 12.2131 16.3006ZM13.5097 16.6942C13.3041 16.4886 12.8176 16.3618 12.6026 16.6116C12.5968 16.6185 12.6057 16.628 12.6125 16.6217C12.8526 16.4053 13.2592 16.58 13.4929 16.7156C13.5065 16.7238 13.5208 16.7055 13.5097 16.6942ZM15.2871 16.6576C15.1668 16.5485 14.9961 16.5018 14.8437 16.5561C14.9345 16.4324 15.0063 16.2988 15.0503 16.1695C15.1337 15.9241 15.1206 15.6479 15.0944 15.3944C15.0669 15.1276 15.0294 14.8583 14.9862 14.5934C14.941 14.3146 14.8846 14.0377 14.834 13.7596C14.7787 13.4569 14.7456 13.1586 14.7281 12.8514C14.7273 12.8394 14.7099 12.8394 14.7093 12.8514C14.6882 13.3307 14.815 13.8183 14.901 14.2862C14.9469 14.5354 14.9735 14.7864 15.0091 15.0374C15.0468 15.3029 15.086 15.5684 15.0703 15.8377C15.0469 16.2395 14.8173 16.6002 14.5013 16.8418C14.3631 16.9471 14.1974 17.0215 14.0217 17.0259C13.8181 17.0303 13.6527 16.9143 13.5294 16.7617C13.5216 16.7522 13.5049 16.7648 13.5123 16.7749C13.9041 17.3009 14.4599 17.0354 14.7991 16.6141C14.8042 16.6166 14.8102 16.6166 14.8163 16.6135C14.975 16.5315 15.1399 16.5674 15.2827 16.6633C15.2863 16.6658 15.2904 16.6608 15.2871 16.6576ZM15.4198 15.2663C15.4187 15.2606 15.4103 15.2619 15.4104 15.2676C15.414 15.564 15.6306 15.8062 15.6307 16.107C15.6308 16.4009 15.4426 16.7207 15.1948 16.8733C15.1891 16.8771 15.1941 16.8859 15.2002 16.8828C15.4618 16.7472 15.6311 16.4892 15.6745 16.1997C15.7254 15.8611 15.4813 15.5848 15.4198 15.2663Z" fill="#461C0F"/>
<path d="M18.4064 13.7438C18.3652 14.056 18.4 14.3751 18.3729 14.6886C18.366 14.77 18.3529 14.85 18.3367 14.9295C18.3229 14.9976 18.287 15.0689 18.2798 15.137C18.2709 15.2203 18.1881 15.3041 18.1371 15.3634C18.0889 15.4196 18.0354 15.47 17.9802 15.5192C17.9854 15.4227 17.9886 15.3262 17.9895 15.2291C17.9951 14.635 17.8916 14.0428 17.9815 13.4506C17.9852 13.426 17.9891 13.4014 17.9943 13.3768C17.9971 13.3629 17.9755 13.3566 17.9726 13.3711C17.8797 13.8189 17.9275 14.2749 17.9493 14.7264C17.9663 15.0746 17.9645 15.424 17.9318 15.7715C17.8981 16.1297 17.8188 16.4823 17.7429 16.8342C17.6706 17.1691 17.6238 17.5071 17.5565 17.8426C17.4924 18.1624 17.3808 18.4721 17.2409 18.7653C17.1299 18.9987 16.9882 19.2106 16.8526 19.4288C16.7362 19.6167 16.6277 19.8091 16.5203 20.0021C16.3681 20.2752 16.2199 20.5508 16.0754 20.8283C16.0163 20.9412 15.9455 21.0459 15.8637 21.1443C15.6509 21.401 15.3764 21.6002 15.0756 21.7415C14.5774 21.9755 14.0246 22.014 13.482 21.9894C13.0052 21.9679 12.5254 21.8859 12.0798 21.7112C11.8871 21.6362 11.6906 21.5403 11.5294 21.4085C11.3097 21.2288 11.0672 21.0717 10.8397 20.9008C10.4619 20.6176 10.0885 20.3275 9.72058 20.0311C9.38745 19.7624 9.05735 19.4887 8.74365 19.198C8.54076 19.0094 8.33333 18.8202 8.2287 18.5591C8.06214 18.1428 7.98191 17.6881 7.89456 17.2504C7.81674 16.8619 7.77177 16.4532 7.5422 16.1184C7.52366 16.0912 7.50398 16.0648 7.48229 16.0402C7.4686 16.0244 7.40112 16.0458 7.39311 16.0465C7.33717 16.0534 7.28066 16.054 7.22421 16.054C6.97938 16.0528 6.72654 15.9954 6.51129 15.8774C6.38275 15.8074 6.31004 15.7217 6.24041 15.6012C6.14587 15.4366 6.05745 15.2688 5.97508 15.0985C5.87032 14.8816 5.77585 14.6577 5.71278 14.4256C5.65337 14.2061 5.62354 13.9772 5.59377 13.7527C5.55315 13.4468 5.5225 13.1384 5.50125 12.83C5.50043 12.8167 5.47962 12.8167 5.48063 12.83C5.5027 13.168 5.53644 13.5067 5.5816 13.8429C5.61193 14.0686 5.64606 14.2963 5.71051 14.5152C5.77951 14.7491 5.88206 14.9737 5.98959 15.1925C6.07088 15.3578 6.1588 15.5192 6.25182 15.6781C6.32435 15.8024 6.44494 15.8806 6.57291 15.9424C6.78217 16.0433 7.02258 16.083 7.25328 16.0843C7.29195 16.0849 7.45227 16.0515 7.47087 16.0742C7.52662 16.1411 7.57109 16.218 7.61139 16.2949C7.71091 16.4848 7.75152 16.6916 7.79252 16.8998C7.83408 17.1104 7.87451 17.3217 7.91853 17.5317C8.00102 17.9253 8.07336 18.3642 8.26623 18.7224C8.38984 18.952 8.62836 19.14 8.81757 19.3121C9.14357 19.6079 9.48508 19.8879 9.82887 20.1629C10.3847 20.6076 10.9658 21.0175 11.5279 21.4533C12.0654 21.8689 12.8247 21.9919 13.482 22.0253C14.3411 22.0701 15.2262 21.8941 15.8296 21.2382C16.0995 20.9443 16.2569 20.5571 16.4457 20.2121C16.5548 20.0122 16.6662 19.8129 16.7818 19.6168C16.8966 19.4212 17.0263 19.2352 17.1387 19.0384C17.2861 18.7805 17.4039 18.5067 17.4943 18.2242C17.596 17.9063 17.6309 17.5784 17.6924 17.2523C17.7569 16.9105 17.8394 16.5718 17.9003 16.2294C17.9403 16.0036 17.9654 15.7772 17.9786 15.5495C18.0996 15.4486 18.2103 15.3407 18.2947 15.2064C18.3736 15.0815 18.3995 14.9446 18.4181 14.7971C18.4619 14.4521 18.4456 14.0907 18.4309 13.7438C18.4302 13.7281 18.4084 13.7287 18.4064 13.7438ZM18.4774 12.1249C18.4679 12.106 18.441 12.1192 18.4454 12.1381C18.4745 12.2661 18.5229 12.3898 18.5512 12.5184C18.5832 12.6641 18.595 12.8117 18.5938 12.9599C18.5926 13.093 18.5482 13.2216 18.543 13.3522C18.5411 13.4007 18.504 13.4544 18.4852 13.4998C18.4589 13.5635 18.4434 13.6303 18.4314 13.6978C18.4293 13.7098 18.4471 13.7148 18.4494 13.7028C18.4603 13.6461 18.4748 13.5912 18.4936 13.537C18.508 13.4953 18.5275 13.4562 18.5476 13.4178C18.5664 13.3812 18.5818 13.3894 18.5952 13.3667C18.6552 13.2639 18.6517 13.0753 18.6556 12.9599C18.6646 12.6881 18.6012 12.3671 18.4774 12.1249Z" fill="#AB5348"/>
<path d="M18.4553 12.7606C18.2881 13.0261 18.1929 13.339 18.1138 13.6404C18.0938 13.7167 18.0763 13.7943 18.061 13.8719C18.0542 13.9066 18.0484 13.9406 18.0429 13.9753C18.0384 14.0043 18.0189 14.0308 18.0178 14.0592C18.0118 14.2326 18.0757 14.3878 17.9444 14.5322C17.9237 14.5549 17.957 14.589 17.9787 14.5663C18.076 14.4647 18.1004 14.367 18.0855 14.2288C18.0772 14.1551 18.0573 14.056 18.0675 13.9822C18.0789 13.8996 18.0956 13.8176 18.1132 13.7357C18.1848 13.4052 18.2884 13.0577 18.4691 12.7688C18.4745 12.76 18.4607 12.7518 18.4553 12.7606Z" fill="#AB5348"/>
<path d="M7.11212 14.4805C7.17714 14.2944 7.00742 14.1834 6.92506 14.0371C6.80952 13.8321 6.75698 13.5874 6.66484 13.3711C6.58973 13.1945 6.49878 13.0293 6.37056 12.8899C6.36835 12.8073 6.35555 12.719 6.31122 12.6622C6.29917 12.6471 6.27489 12.6603 6.27476 12.6774C6.27426 12.7209 6.28889 12.7638 6.29652 12.8067C6.29715 12.8098 6.29747 12.8136 6.29803 12.8174C6.29223 12.8123 6.287 12.8067 6.28113 12.8016C6.27193 12.7934 6.25918 12.806 6.2677 12.8149C6.28 12.8281 6.29148 12.842 6.30321 12.8552C6.30888 12.9107 6.30857 12.9669 6.30623 13.0224C6.30012 13.163 6.26322 13.3062 6.18382 13.4235C6.17265 13.4399 6.11495 13.4802 6.11816 13.5048C6.12895 13.5881 6.1005 13.6883 6.09502 13.7722C6.08297 13.9583 6.0959 14.1456 6.09861 14.3317C6.09861 14.3335 6.10189 14.3335 6.10189 14.3317C6.1034 14.145 6.09748 13.9583 6.11192 13.7722C6.11924 13.6776 6.12195 13.561 6.19719 13.4935C6.24197 13.4531 6.2718 13.3951 6.29602 13.3415C6.34496 13.233 6.36306 13.1113 6.36905 12.9933C6.36993 12.9763 6.37044 12.958 6.37081 12.9385C6.54873 13.175 6.64907 13.4436 6.75118 13.7174C6.6719 13.7237 6.60013 13.7546 6.52413 13.776C6.46592 13.7924 6.45785 13.7994 6.43495 13.8549C6.38097 13.9873 6.34817 14.126 6.32881 14.2673C6.29702 14.4988 6.30049 14.8154 6.51215 14.9655C6.51518 14.968 6.51884 14.963 6.51606 14.9604C6.31229 14.7933 6.32276 14.4849 6.35625 14.2478C6.37214 14.1355 6.40046 14.0251 6.4383 13.9186C6.45545 13.87 6.45804 13.8385 6.50654 13.8309C6.59061 13.8176 6.66787 13.7779 6.75314 13.771C6.75976 13.7703 6.76474 13.7678 6.76878 13.764C6.8058 13.8631 6.84357 13.9621 6.88602 14.0598C6.92102 14.1412 6.99027 14.2106 7.03694 14.285C7.10878 14.3998 7.03707 14.5171 6.99399 14.6287C6.95546 14.7296 6.98138 14.7883 6.995 14.8892C7.0131 15.0216 7.06715 15.1471 7.12284 15.2676C7.12303 15.2682 7.1236 15.2676 7.12347 15.2676C7.07087 15.1307 7.02294 14.9932 7.00459 14.8475C6.98945 14.7265 7.07384 14.5902 7.11212 14.4805Z" fill="#AB5348"/>
<path d="M11.8894 18.5755C11.8894 18.5755 12.8689 19.4244 13.5218 19.6199C13.5218 19.6199 14.24 19.7725 14.9146 19.5549C14.9146 19.5549 15.154 19.3153 15.2846 19.0328C15.4152 18.7496 15.9811 18.3365 15.9811 18.3365C15.9811 18.3365 15.4369 18.4449 15.2628 18.4449C15.0888 18.4449 14.1312 18.4014 14.0658 18.4229C14.0006 18.4449 12.9559 18.467 12.9559 18.467L11.8894 18.5755Z" fill="#882824"/>
<path d="M15.2628 18.4449C15.0888 18.4449 14.1312 18.4014 14.0658 18.4229C14.0006 18.4449 12.9559 18.467 12.9559 18.467L11.8894 18.5755C11.8894 18.5755 11.9919 18.6644 12.1521 18.7906C12.4047 18.7767 13.6687 18.7105 14.1964 18.7496C14.7728 18.7925 14.9517 18.5629 15.595 18.6569C15.7835 18.4803 15.9811 18.3365 15.9811 18.3365C15.9811 18.3365 15.4369 18.4449 15.2628 18.4449ZM14.2181 19.5549C13.6742 19.5985 12.9777 19.3588 12.9777 19.3588L12.9747 19.3645C13.1639 19.4761 13.3537 19.5701 13.5218 19.6199C13.5218 19.6199 14.24 19.7725 14.9146 19.5549C14.9146 19.5549 15.0247 19.4446 15.1363 19.2857L15.1322 19.2718C15.1322 19.2718 14.7623 19.5114 14.2181 19.5549Z" fill="#721D1E"/>
<path d="M16.1768 18.1403C16.1768 18.1403 15.7417 18.38 15.4369 18.3579C15.1322 18.3365 14.9623 18.0678 14.7622 18.0533C14.4575 18.0312 14.1963 18.2273 14.1963 18.2273C14.1963 18.2273 13.8263 17.9877 13.5217 18.0533C13.217 18.1182 12.7599 18.4229 12.2594 18.467C11.7588 18.5105 11.3671 18.38 11.3671 18.38C12.1201 18.8744 13.107 18.4128 13.9075 18.5913L13.957 18.6411C14.0657 18.6411 14.1746 18.6411 14.2834 18.6625C14.3766 18.6512 14.4512 18.6083 14.5202 18.554H14.5228C15.1758 18.4014 15.6546 18.6625 16.1768 18.1403Z" fill="#721D1E"/>
<path d="M13.9386 18.585C13.7584 18.5163 13.5412 18.5225 13.3517 18.5307C13.1351 18.5402 12.919 18.5667 12.7034 18.5888C12.248 18.6342 11.7688 18.6254 11.3676 18.3788C11.3663 18.3781 11.3651 18.38 11.3664 18.3807C11.7356 18.6254 12.1717 18.6405 12.6004 18.6127C12.8283 18.5982 13.0561 18.5768 13.2844 18.5692C13.506 18.5617 13.7158 18.59 13.9352 18.6102C13.9506 18.6115 13.951 18.59 13.9386 18.585ZM16.1708 18.1303C16.0415 18.2287 15.9282 18.3352 15.7716 18.3914C15.7103 18.4128 15.6472 18.4279 15.5831 18.4393C15.5224 18.4494 15.4492 18.4399 15.3908 18.457C15.2571 18.4954 15.1059 18.4835 14.9682 18.4885C14.839 18.4935 14.711 18.5074 14.5846 18.5326C14.6269 18.4935 14.6663 18.4507 14.7034 18.4078C14.7099 18.4002 14.7016 18.3876 14.6923 18.3933C14.5989 18.4513 14.5196 18.5289 14.4243 18.5844C14.2822 18.667 14.1133 18.6304 13.9569 18.631C13.944 18.631 13.944 18.6506 13.9569 18.6512C14.0467 18.6512 14.1923 18.6348 14.2694 18.6865C14.2965 18.7048 14.3713 18.6733 14.3954 18.6626C14.4554 18.6367 14.5095 18.5989 14.5593 18.5553C14.7141 18.5251 14.8702 18.5118 15.0279 18.5074C15.1676 18.5036 15.3163 18.5276 15.4537 18.5099C15.7195 18.4746 16.0126 18.3643 16.1852 18.1486C16.193 18.1391 16.1825 18.1214 16.1708 18.1303Z" fill="#721D1E"/>
<path d="M9.12741 6.99744C9.10389 6.87509 8.866 6.61021 8.78256 6.51371C8.66311 6.37559 8.547 6.38947 8.40598 6.29613C8.2876 6.21792 8.08004 6.01735 8.02038 5.88239C7.95605 5.7367 7.99597 5.59417 7.90704 5.47497C7.77706 5.30027 7.54982 5.20251 7.35879 5.08395C7.55537 5.25423 7.77012 5.46299 7.86346 5.64778C7.93896 5.79725 7.94255 5.93095 8.06377 6.0779C8.16398 6.20025 8.27006 6.34153 8.38541 6.45316C8.48626 6.55028 8.62375 6.60516 8.69004 6.73571C8.74654 6.84797 8.73443 6.96717 8.75436 7.08889C8.8069 7.4118 9.06907 7.57893 9.16891 7.86778L9.2777 7.93338C9.28193 7.75678 9.16595 7.65398 9.10843 7.4982C9.03584 7.3008 9.15844 7.15826 9.12741 6.99744ZM7.35879 5.08395C7.27403 5.01016 7.19267 4.94394 7.12582 4.8897C7.18579 4.96602 7.26829 5.02719 7.35879 5.08395ZM14.9734 7.27557C14.9672 7.29701 14.9618 7.31846 14.9583 7.33864C14.9633 7.31719 14.9683 7.29638 14.9734 7.27557ZM17.3898 6.49164C17.4 6.33523 17.5707 6.16872 17.6182 6.01736C17.6626 5.87545 17.6563 5.73355 17.7004 5.58786C17.76 5.39109 18.033 5.08269 18.0229 4.8897C18.0178 4.79132 17.8803 4.64752 17.8467 4.52832C17.8362 4.49174 17.8276 4.45578 17.8197 4.4192C17.7107 4.33406 17.584 4.27667 17.4174 4.27667C17.4174 4.17261 17.4169 4.0553 17.4059 3.94556C17.3768 4.11648 17.3222 4.29749 17.374 4.42931C17.4111 4.52328 17.4939 4.57499 17.5268 4.6677C17.5579 4.75599 17.5726 4.92249 17.5866 5.01772C17.6365 5.35577 17.5235 5.72346 17.412 6.04006C17.36 6.18827 17.3445 6.31189 17.3096 6.45758C17.2485 6.713 17.0461 6.86688 16.9604 7.10591L16.6774 7.5846C16.9109 7.46288 17.3187 7.0706 17.4184 6.82337C17.4833 6.66255 17.3799 6.64237 17.3898 6.49164ZM19.0061 11.0237C19.0061 11.0237 18.9428 10.8642 18.9562 10.7014C18.9138 10.7021 18.86 10.6989 18.8153 10.7235C18.7313 10.7708 18.6703 10.8938 18.5986 10.9575C18.4811 11.0616 18.1592 11.3952 18.0128 11.3927C18.1378 11.4576 18.7873 11.141 18.609 11.4967C18.5203 11.6733 18.1717 11.831 17.9167 11.8814C17.9176 11.8934 17.918 11.9048 17.918 11.9161C17.918 11.9313 17.9177 11.947 17.9172 11.9634C18.0533 11.9313 18.2013 11.8953 18.3098 11.8354C18.4385 11.7641 18.6208 11.5358 18.7499 11.7616C18.828 11.7263 18.8711 11.6374 18.9111 11.5674C18.8843 11.5604 18.8642 11.5484 18.8359 11.5421C18.8128 11.3611 19.0338 11.2886 19.174 11.2249C19.1408 11.1543 19.0881 11.0748 19.0061 11.0237ZM6.79666 8.34647C7.26406 8.43288 7.71134 8.40891 8.13945 8.6656C7.80172 8.29728 7.28292 8.41837 6.86793 8.21088C6.48252 8.01852 6.13116 7.6666 5.72974 7.51713C5.44877 7.41306 5.11463 7.4963 4.83782 7.56316V7.69372C4.96283 7.85959 5.3507 7.94662 5.5756 8.03239C5.44151 7.87283 5.16597 7.8476 5.05718 7.67542C5.63766 7.6029 6.22772 8.24178 6.79666 8.34647ZM18.0552 12.2863C18.322 12.292 18.5743 12.164 18.8365 12.1381C18.8684 12.135 18.8999 12.1331 18.9309 12.1318C18.9452 12.1192 18.9563 12.106 18.9627 12.0902C18.9966 12.0051 18.9649 11.947 18.99 11.8531C18.6249 11.8814 18.4063 12.1911 18.0552 12.2863ZM17.6194 9.67594C17.9831 9.55864 18.4757 9.36566 18.707 9.06545C18.8562 8.87183 19.0072 8.82832 19.2015 8.68957C19.2628 8.64542 19.3226 8.58739 19.3791 8.5218C19.3517 8.47197 19.289 8.38999 19.1585 8.34647C19.0501 8.31052 18.982 8.14087 18.9719 7.92329C18.886 7.95608 18.7871 7.97122 18.6749 8.04059C18.3525 8.24115 18.3529 8.65173 18.2063 8.9513C18.0817 9.2061 17.9347 9.17582 17.6835 9.15122C17.5335 9.13672 17.4638 9.15311 17.4216 9.196C17.4297 9.27988 17.4371 9.36628 17.4438 9.45458C17.6833 9.37763 17.9722 9.34863 18.1398 9.20105C18.2726 9.085 18.2833 8.91913 18.3914 8.78164C18.5379 8.59496 18.6537 8.66244 18.8559 8.61577C18.6172 9.17392 18.1157 9.40853 17.6194 9.67594ZM18.6585 7.30647C18.6528 7.13682 18.543 7.06871 18.5009 6.91545C18.4662 6.78931 18.4644 6.602 18.5094 6.47838C18.6408 6.48658 18.7511 6.45 18.8461 6.38378C18.809 6.38126 18.768 6.37622 18.7233 6.36613C18.5274 6.32261 18.3751 6.16999 18.4621 5.97448C18.5492 5.77834 18.5709 5.62634 18.5056 5.51723C18.4828 5.47939 18.4442 5.4548 18.4035 5.4384C18.47 5.61184 18.444 5.88807 18.381 6.03502C18.3532 6.09935 18.2806 6.24693 18.2396 6.29613C18.1781 6.36929 18.104 6.36865 18.0535 6.45758C18.001 6.54966 18.0195 6.77859 18.0002 6.88833C17.9641 7.09456 17.916 7.31405 17.8479 7.51397C17.7729 7.73408 17.6218 7.9813 17.4802 8.16483C17.6667 7.92454 17.8486 7.80976 17.9404 7.52028C17.9922 7.3563 18.192 6.60137 18.3098 7.10591C18.4254 7.60163 18.0463 7.92517 17.7923 8.28088C17.6965 8.41521 17.526 8.65929 17.3443 8.77029C17.3548 8.80813 17.3646 8.84597 17.3733 8.88444C17.6896 8.57666 17.9231 8.2443 18.2173 7.90562C18.3797 7.71831 18.6684 7.60416 18.6585 7.30647ZM19.4019 8.74884C19.3459 8.81948 19.2926 8.90148 19.2673 8.98283C19.1682 9.30196 19.1003 9.53278 18.8368 9.77875C18.6736 9.93138 18.4058 10.1546 18.196 10.219C18.006 10.2764 17.8028 10.2171 17.6427 10.3716C17.9679 10.3003 18.2226 10.2637 18.5274 10.125C18.6759 10.0575 18.8445 9.95534 18.9675 9.85443C19.1029 9.74343 19.1696 9.52458 19.3126 9.44259C19.5568 9.74469 18.4717 10.3911 18.274 10.5021C18.4281 10.5084 18.5733 10.3993 18.7233 10.3697C18.7831 10.3577 18.8976 10.3243 18.9584 10.3533C19.0004 10.3729 19.0215 10.4353 19.0406 10.4832C19.1825 10.2833 19.2239 9.93516 19.2239 9.93516C19.2239 9.93516 19.6374 9.49998 19.6809 9.10833C19.6809 9.10833 19.5815 8.83083 19.4019 8.74884ZM13.0196 7.16394C13.0542 7.08763 13.0612 6.99997 13.0515 6.90852C13.0505 6.98798 13.041 7.07249 13.0196 7.16394ZM9.23318 5.71778C9.19868 5.52038 9.25254 5.32172 9.11991 5.15269C8.97996 4.97421 8.73381 4.91871 8.58124 4.75599C8.4307 4.59517 8.38365 4.35489 8.19438 4.22749C7.86775 4.00738 7.36756 4.07864 7.05669 3.80303C7.05089 3.79736 7.04566 3.79169 7.04004 3.78601C6.99981 3.84845 6.93466 3.87745 6.81842 3.8415C6.85576 3.85979 6.89316 3.91087 6.93049 3.9525C7.17293 4.07801 7.47439 4.34289 7.59649 4.51633C7.72484 4.6986 7.79831 4.88339 8.01476 4.97926C8.24067 5.0789 8.42086 5.05052 8.55412 5.2946C8.67212 5.51155 8.63996 5.74427 8.79895 5.94798C8.9611 6.15485 9.1703 6.21855 9.38599 6.34406C9.71609 6.53578 9.79291 6.84166 9.9094 7.18665C9.90637 6.78175 9.81599 6.50172 9.53294 6.2198C9.38568 6.07285 9.26944 5.92654 9.23318 5.71778ZM5.57345 7.12547C5.50906 6.8095 6.13028 7.00943 6.27427 7.05673C6.51437 7.13493 6.65886 7.24467 6.86087 7.3727C7.08968 7.51712 7.38206 7.45531 7.62368 7.60668C7.86693 7.7593 7.96368 8.03681 8.18675 8.20142C7.99786 7.93085 7.89329 7.49946 7.5572 7.3071C7.28923 7.15322 6.95326 7.22386 6.66605 7.12295C6.33664 7.00753 6.01436 6.95266 5.68672 6.86184C5.42688 6.78931 5.12182 6.59822 4.96125 6.35919C4.90859 6.40397 4.91225 6.47712 5.03378 6.64867C4.86362 6.64236 4.78315 6.76598 4.7395 6.94383C4.76757 6.91671 4.7991 6.89527 4.83738 6.88707C5.06235 6.84229 5.37082 7.05295 5.57345 7.12547ZM12.6898 5.71778C12.5936 5.61435 12.3646 5.52669 12.2399 5.44659C12.0702 5.33748 11.8581 5.26243 11.8236 5.03854C11.7946 4.84997 11.9072 4.67842 11.8904 4.49426C11.8582 4.13981 11.7975 3.6668 11.454 3.51039C11.2212 3.40381 11.0052 3.39499 10.9531 3.10172C10.9071 2.84251 10.9122 2.73024 10.6912 2.55238C10.5233 2.41742 10.2848 2.27615 10.1858 2.07433C10.1752 2.05226 10.1656 2.03145 10.1562 2.01064C10.1206 2.00559 10.0881 1.99929 10.0612 1.99172C9.713 1.86117 9.75652 1.79557 9.34298 1.90468C9.3648 1.92612 9.40838 1.99171 9.43014 2.01315C9.39722 2.00243 9.35339 1.99675 9.30943 1.99108C9.52796 2.20677 10.0484 2.52843 10.1706 2.64447C10.3443 2.80971 10.5656 2.91188 10.7364 3.07397C10.8954 3.2247 10.8914 3.39182 11.1048 3.52048C11.3245 3.65293 11.4778 3.69329 11.5419 3.96701C11.5841 4.14865 11.6239 4.31514 11.6676 4.49426C11.7181 4.70238 11.6248 4.85186 11.6283 5.0398C11.6318 5.22648 11.8127 5.32172 11.9765 5.43019C12.3304 5.66418 12.5893 5.87735 12.7975 6.25261C12.8901 6.41911 13.0265 6.67642 13.0515 6.90852C13.0542 6.65057 12.9642 6.43802 12.8741 6.16557C12.8286 6.02745 12.7881 5.82374 12.6898 5.71778ZM11.1668 4.02187C11.0568 3.85916 10.7977 3.82952 10.6484 3.72798C10.4463 3.59175 10.3428 3.36597 10.1869 3.18875C10.0408 3.02225 9.8556 2.98503 9.66948 2.86773C9.39072 2.6924 9.4968 2.50319 9.39186 2.2465C9.36077 2.17082 9.28344 2.0674 9.19099 1.96964C9.19086 1.96964 9.19073 1.96964 9.19061 1.96964C9.16891 2.12227 9.08188 2.31778 8.92957 2.38337C8.90705 2.4004 8.87571 2.40671 8.84102 2.40797C8.96337 2.50825 9.07696 2.6142 9.17005 2.75925C9.32892 3.00711 9.43708 3.00521 9.68689 3.14523C9.87351 3.24929 9.9666 3.43787 10.1321 3.56275C10.3815 3.75069 10.7367 3.83078 10.9709 4.03639C11.1182 4.16568 11.1067 4.34983 11.2148 4.49489C11.3284 4.64751 11.4781 4.69987 11.4542 4.9307C11.4365 5.09972 11.3026 5.19999 11.2589 5.3646C11.2058 5.56327 11.2579 5.7323 11.3023 5.92402C11.3007 5.72851 11.2858 5.54561 11.3507 5.3646C11.4157 5.18359 11.506 5.08016 11.5025 4.88591C11.4987 4.67085 11.4276 4.61031 11.3289 4.4457C11.2498 4.31263 11.2485 4.14233 11.1668 4.02187ZM10.2572 5.53867C10.248 5.30721 10.2444 5.21387 10.1428 5.01647C10.0191 4.77618 10.0382 4.56237 9.99113 4.30253C9.8807 3.69518 9.33062 3.84781 8.9073 3.59616C8.7152 3.48201 8.51079 3.28146 8.3863 3.06388C8.20788 3.00081 8.04598 2.92071 7.88491 2.84061C7.87021 2.86395 7.85388 2.88413 7.83697 2.90305C7.88137 3.04496 7.81212 3.20263 7.81843 3.35777C7.82884 3.61446 8.01924 3.68383 8.23311 3.78096C8.53135 3.91656 8.84026 4.02504 9.09866 4.23442C9.31939 4.41291 9.29442 4.56048 9.42409 4.77744C9.53218 4.95781 9.76863 4.99817 9.9041 5.16909C10.0462 5.3482 10.0394 5.5002 10.0612 5.71337C10.1008 6.09746 10.4954 6.31125 10.5617 6.70795C10.5621 6.50172 10.5844 6.24693 10.4909 6.06088C10.3834 5.84644 10.2677 5.8086 10.2572 5.53867ZM8.60249 7.17151C8.57247 6.95014 8.60546 6.82589 8.40768 6.67074C8.24187 6.54082 8.0234 6.48974 7.86359 6.36613C7.67817 6.22233 7.61642 5.98393 7.45011 5.82122C7.1361 5.51534 6.64505 5.55255 6.38319 5.19053C6.13514 4.84807 5.90885 4.77554 5.54236 4.84429C5.45936 5.04548 5.53618 5.32297 5.36892 5.44406C5.48818 5.44343 5.62454 5.43461 5.77855 5.45164C6.00888 5.47687 6.05675 5.58345 6.21334 5.73355C6.36105 5.87545 6.51052 5.8906 6.68673 5.9524C7.08028 6.09178 7.19916 6.47838 7.53715 6.69282C7.85432 6.89463 8.23475 6.73697 8.40654 7.14943C8.52303 7.42882 8.77221 7.61614 8.95353 7.8804C8.93196 7.81228 8.89539 7.73975 8.85887 7.6729C8.76351 7.49946 8.62898 7.36702 8.60249 7.17151ZM14.7285 6.14665C14.9195 5.78022 15.2957 5.55507 15.4375 5.16909C15.501 4.99628 15.5894 4.94709 15.6756 4.80014C15.721 4.7232 15.715 4.62482 15.7677 4.54283C15.7752 4.53085 15.7838 4.52012 15.7925 4.51003C15.8772 4.79951 15.7559 5.10917 15.7416 5.40875C15.7221 5.81112 15.5591 6.12709 15.3309 6.45C15.6481 6.2217 15.8612 5.86347 15.9162 5.46803C15.9511 5.21828 16.062 5.05242 16.1291 4.82033C16.1899 4.60905 16.058 4.38704 16.0035 4.16378C16.0451 3.97899 16.0428 3.77213 16.0197 3.60184C15.9972 3.43597 16.0155 3.22659 15.9809 3.05757C15.952 2.91693 15.8552 2.81601 15.7806 2.69934C15.7342 2.68231 15.6788 2.66466 15.611 2.64447C15.611 2.68799 15.611 2.7315 15.6328 2.77502C15.5971 2.75736 15.5648 2.73655 15.5348 2.71448C15.5369 2.72015 15.5383 2.72645 15.5403 2.73213C15.6308 2.96548 15.7423 3.02035 15.7417 3.32119C15.7411 3.57094 15.7635 3.8434 15.7645 4.0799C15.7654 4.30064 15.6726 4.30695 15.5942 4.47723C15.5235 4.63112 15.564 4.90736 15.3058 4.70743C15.1613 4.5958 15.1509 4.30569 15.1268 4.14613C15.0613 3.70843 15.3144 3.30479 15.0838 2.90116C14.9756 2.71195 14.8463 2.57005 14.7139 2.40607C14.5789 2.23894 14.5992 2.18344 14.6539 2.10209C14.5481 2.08632 14.4402 2.08063 14.3425 2.07937C14.3675 2.16956 14.3981 2.25723 14.4412 2.33417C14.5411 2.51328 14.7228 2.65204 14.8117 2.84061C14.8893 3.00585 15.2131 4.05153 14.9817 4.16442C14.6989 4.30254 14.5438 3.33254 14.4636 3.22721C14.4077 3.15406 14.3106 3.13955 14.2394 3.08531C14.1465 3.01467 14.0515 2.89233 13.9782 2.79709C13.809 2.57699 13.9086 2.41931 13.8221 2.21497C13.7752 2.1046 13.6288 1.98477 13.5156 1.87693C13.4306 1.87188 13.3456 1.87062 13.2606 1.86116C13.3041 1.90468 13.3258 1.96963 13.3476 2.01315C13.0882 2.09451 12.9737 1.84917 12.7612 1.8271C12.83 1.95513 13.2942 2.15127 13.3938 2.21371C13.5913 2.33796 13.6614 2.50382 13.7334 2.70943C13.8485 3.03927 13.968 3.29029 13.7808 3.62392C14.1837 3.94052 14.065 4.75284 14.1093 5.21702C14.1575 5.72093 13.7704 6.21603 13.8253 6.74706C13.9748 6.47524 14.3722 6.14791 14.3922 5.84392C14.405 5.64904 14.2829 5.43335 14.2834 5.21766C14.2847 4.71564 14.1788 4.24451 14.067 3.77213C14.0074 3.51985 14.0787 3.13388 14.3536 3.46499C14.4806 3.61761 14.5232 3.79357 14.5876 3.9771C14.651 4.15747 14.8005 4.35614 14.828 4.53841C14.8586 4.74149 14.7909 4.91303 14.833 5.12557C14.8861 5.39361 14.8396 5.69192 14.79 5.97006C14.7796 6.02745 14.7428 6.08736 14.7285 6.14665ZM7.9937 10.1363C7.75063 10.2114 7.30745 10.0102 7.08734 9.91245C7.37935 9.88218 7.62481 9.71821 7.90004 9.62991C7.68164 9.60595 7.47263 9.76425 7.25366 9.76236C7.06029 9.76109 6.85601 9.69739 6.65041 9.69613C6.1388 9.69172 5.68382 9.60594 5.22967 9.38583C5.05396 9.30069 4.87516 9.28304 4.69043 9.21681C4.62472 9.19348 4.42126 9.08058 4.2844 9.01625C4.22051 9.12221 4.1425 9.0541 4.16318 9.28241C4.16318 9.34611 4.19957 9.41989 4.24681 9.48926C4.41577 9.58387 4.65865 9.55801 4.83309 9.58576C4.94687 9.60405 5.07893 9.63937 5.17839 9.69676C4.92107 9.69298 4.64351 9.72198 4.39237 9.6791C4.20733 9.76865 4.21042 9.95849 4.40259 10.0222C4.36109 10.0916 4.3283 10.1868 4.27646 10.2644C4.47052 10.178 4.66186 10.067 4.8645 9.99444C5.11747 9.90425 5.26549 10.0083 5.51909 10.0001C5.80592 9.99192 6.06665 9.88849 6.3625 9.89165C6.62385 9.8948 6.93585 9.93895 7.17198 10.0651C7.46052 10.2196 7.76426 10.4574 8.11939 10.2354C8.28318 10.1332 8.33118 10.0083 8.53779 9.95724C8.59222 9.94399 8.63687 9.93516 8.67427 9.92759C8.71097 9.83614 8.74181 9.75793 8.76364 9.70117C8.64286 9.7491 8.51893 9.81786 8.40724 9.87525C8.2659 9.94778 8.13844 10.0922 7.9937 10.1363ZM6.83425 11.703C6.66945 11.5661 6.66914 11.5352 6.44846 11.481C6.26998 11.4374 6.15904 11.3277 5.99078 11.2571C5.64169 11.1108 5.27665 11.1782 4.96775 10.9203C4.73042 10.7223 4.5211 10.4561 4.20588 10.3993C4.35863 10.5059 4.47524 10.6466 4.55496 10.8061C4.52822 10.8225 4.50514 10.8383 4.48445 10.8534C4.67372 10.9052 4.80724 11.1126 5.01196 11.1978C5.32894 11.3296 5.76127 11.2747 6.03272 11.5245C5.90097 11.8373 5.31204 11.5169 5.12195 11.4368C4.92612 11.3548 4.70658 11.3832 4.51031 11.3018C4.48496 11.2911 4.45967 11.2791 4.4345 11.2665C4.45387 11.3101 4.47354 11.3592 4.48969 11.4154C4.55005 11.5964 4.4989 11.8146 4.50804 11.9842C4.65221 12.0549 4.79696 12.1999 4.94674 12.2207C5.24323 12.2611 5.35833 12.3639 5.62031 12.5083C5.89605 12.6603 6.14687 12.5998 6.44834 12.6338C6.74974 12.6673 6.93522 12.9202 7.07952 13.1781L7.31899 13.3522C7.19242 13.1258 7.03065 12.7297 6.8142 12.5739C6.49841 12.3469 6.07043 12.6061 5.7286 12.4598C5.58607 12.3986 5.49027 12.2542 5.35543 12.1817C5.15437 12.0744 5.0551 12.0385 4.92499 11.8291C4.86898 11.7383 4.80635 11.6613 4.73975 11.592C4.85612 11.5844 4.98288 11.5522 5.09899 11.568C5.25635 11.5888 5.41761 11.6639 5.5778 11.6973C5.79034 11.7421 5.95502 11.7364 6.16661 11.6815C6.31331 11.6437 6.43263 11.5812 6.57901 11.6374C6.8152 11.7282 7.1735 11.9672 7.31899 12.1772L7.38427 12.3078C7.33476 12.205 7.30253 11.9943 7.20528 11.8991C7.09895 11.7944 6.95433 11.8026 6.83425 11.703ZM17.0702 5.60868C17.1476 5.76383 17.0188 6.06656 16.9685 6.20783C17.1978 5.88997 17.5376 4.99439 17.2488 4.62607C17.1889 4.85501 16.9295 5.36081 16.8299 4.88591C16.79 4.69544 16.8515 4.45578 16.8516 4.25523C16.8516 4.03449 16.9146 3.88691 16.9582 3.69329C16.9295 3.69077 16.901 3.68888 16.8733 3.68888C16.6992 3.3193 16.6774 2.97116 16.1768 3.16667C16.1767 3.16667 16.1766 3.16604 16.1765 3.16604C16.193 3.2247 16.2105 3.28272 16.2418 3.33633C16.2934 3.42588 16.3991 3.4858 16.4445 3.57914C16.4893 3.67122 16.501 3.76393 16.5475 3.84718C16.6044 3.94809 16.6795 4.01116 16.716 4.12973C16.8284 4.493 16.7032 4.83862 16.6177 5.19243C16.563 5.41885 16.5749 5.51218 16.3739 5.6421C16.1917 5.76067 16.1965 5.78464 16.0948 5.99655C15.9906 6.21288 15.8556 6.26585 15.6376 6.36045C15.1978 6.55155 15.0773 6.8467 14.9734 7.27557C15.0466 7.02014 15.2942 6.69849 15.5239 6.60452C15.6446 6.5547 15.819 6.602 15.9327 6.51434C16.0356 6.4355 16.1011 6.21729 16.1606 6.10502C16.3029 5.83509 16.4453 5.76824 16.6708 5.66733C16.6465 5.73103 16.6229 5.80103 16.5899 5.8723C16.5029 6.05835 16.3979 6.09746 16.2912 6.24062C16.1768 6.39451 16.1655 6.54966 15.9979 6.68715C15.8345 6.82085 15.6324 6.89906 15.5239 7.08448L15.3717 7.38909C15.6805 7.17214 16.0924 6.93248 16.3054 6.5875C16.2925 6.58497 16.2794 6.58246 16.2664 6.57993C16.2857 6.30559 16.4563 6.37307 16.5963 6.23621C16.732 6.1044 16.8782 5.75878 16.947 5.52101C16.9891 5.50209 17.0227 5.51345 17.0702 5.60868ZM4.30944 8.97463C4.53138 9.07743 5.04545 9.13546 5.18672 9.14681C5.35984 9.16132 5.44637 9.08752 5.59969 9.06418C5.766 9.03895 5.94896 9.10013 6.10562 9.14617C6.43219 9.24267 6.69462 9.32655 7.03607 9.32592C7.31332 9.32528 7.64077 9.33602 7.87664 9.49684C7.56849 9.18591 7.15836 9.28114 6.76992 9.21807C6.55429 9.18338 6.30984 9.12158 6.12196 9.00554C5.96782 8.90967 5.72173 8.8075 5.6019 8.69903C5.88507 8.61578 6.22053 8.68578 6.51374 8.6246C6.82826 8.55901 7.02837 8.51991 7.35582 8.56531C6.78462 8.34395 6.31305 8.63722 5.73024 8.60821C5.41578 8.59244 5.08694 8.6164 4.81575 8.43287C4.68287 8.34331 4.54588 8.21529 4.39641 8.12068C4.37169 8.12636 4.3452 8.13015 4.31562 8.12889C4.31562 8.2443 4.34066 8.37233 4.38121 8.48459C4.64572 8.64857 5.03094 8.72173 5.25016 8.74317C5.02551 8.7766 4.80257 8.87688 4.55004 8.82579C4.52482 8.82075 4.48849 8.81318 4.44579 8.80372C4.49984 8.9103 4.37434 8.89075 4.30944 8.97463ZM13.6964 5.01647C13.7354 4.77366 13.8305 4.60589 13.7127 4.36371C13.5922 4.11648 13.413 4.27604 13.3259 4.08053C13.2392 3.88628 13.3327 3.64599 13.2224 3.42778C13.1255 3.23605 13.0204 3.05189 12.9177 2.8671C12.8367 2.72078 12.7987 2.57447 12.7328 2.42752C12.6797 2.30832 12.6531 2.08821 12.5863 1.9955C12.5699 1.97342 12.5433 1.95766 12.5138 1.94442C12.5224 1.97469 12.5272 2.00495 12.5422 2.03522C12.4118 2.10018 12.3029 2.07875 12.1941 1.99172L12.0636 1.96964C11.9953 1.90658 11.9031 1.87062 11.797 1.8517C11.9277 1.96018 12.0443 2.08947 12.1348 2.2257C12.2882 2.45842 12.5118 2.5423 12.6741 2.75357C12.8788 3.01909 13.3466 3.68887 13.1038 4.03449C12.9627 3.9525 12.9284 3.78285 12.8254 3.66744C12.713 3.5413 12.6517 3.5823 12.477 3.53689C12.3486 3.50283 12.1959 3.42651 12.1343 3.29596C12.0756 3.17172 12.1317 3.04054 12.0253 2.94405C11.9307 2.85764 11.7606 2.83556 11.65 2.7315C11.5171 2.60599 11.4049 2.46094 11.2789 2.3348C11.1744 2.23011 11.0442 2.11218 10.9536 1.99172C10.9259 1.95451 10.9056 1.92045 10.8903 1.88828C10.8166 1.89333 10.7476 1.89522 10.686 1.89144C10.7907 2.0592 10.9961 2.2976 11.0466 2.40481C11.1375 2.59906 11.1291 2.83556 11.3013 2.97116C11.4814 3.11369 11.716 3.10991 11.8192 3.34011C11.9213 3.56842 11.8961 3.6378 12.1723 3.75447C12.379 3.84151 12.5644 3.8434 12.7333 4.01431C12.8322 4.11459 12.8827 4.25397 12.983 4.34289C13.0774 4.42677 13.2021 4.46651 13.3047 4.53841C13.5631 4.72067 13.5684 5.0007 13.5653 5.29965C13.5635 5.46173 13.5614 5.59039 13.4733 5.73167C13.4032 5.84393 13.3411 5.77455 13.3258 5.93096C13.3098 6.09367 13.4502 6.36613 13.483 6.53957C13.5233 6.75211 13.564 6.96717 13.5033 7.16772C13.5106 7.16646 13.5539 7.16646 13.5616 7.16772C13.6198 6.99807 13.6469 6.80319 13.6141 6.62723C13.5792 6.43992 13.4648 6.2772 13.5163 6.08295C13.56 5.91897 13.7735 5.76067 13.7832 5.58281C13.7935 5.39929 13.6613 5.23658 13.6964 5.01647Z" fill="black"/>
<path d="M8.90419 6.83029C8.83753 6.70983 8.79383 6.60073 8.68642 6.50739C8.56905 6.40522 8.41636 6.36547 8.29622 6.26961C8.43572 6.39259 8.65148 6.46828 8.75258 6.63037C8.81886 6.73695 8.82473 6.88516 8.86717 7.00688C8.91605 7.14752 8.97515 7.28943 9.03109 7.42503L9.08924 7.51206C9.08129 7.3979 9.08104 7.25348 9.06016 7.13491C9.0379 7.00878 8.97212 6.95327 8.90419 6.83029ZM7.9139 5.61118C7.90885 5.52162 7.83184 5.42765 7.74456 5.40747C7.78984 5.4655 7.87965 5.60866 7.88495 5.62631L7.9139 5.61118ZM5.86443 9.73584C5.59734 9.68602 5.35408 9.51573 5.08491 9.4451C4.7671 9.36185 4.43108 9.34482 4.16008 9.20418C4.15951 9.22563 4.16039 9.25085 4.16323 9.28239C4.16323 9.32591 4.18013 9.37384 4.20561 9.42177C4.23399 9.42366 4.25846 9.42618 4.27599 9.42807C4.6141 9.47348 4.9239 9.43123 5.25469 9.55421C5.33642 9.58448 5.55313 9.65511 5.46243 9.76107C5.40176 9.83233 5.13744 9.81847 5.05476 9.8191C4.86158 9.82099 4.66626 9.79639 4.47554 9.80396C4.40383 9.80711 4.3325 9.81279 4.26111 9.81973C4.24023 9.89982 4.28709 9.9837 4.40264 10.0222C4.38996 10.0436 4.37791 10.0676 4.36593 10.0928C4.54908 10.0361 4.79044 9.92946 4.89539 9.92063C5.1155 9.90234 5.33113 9.88721 5.55287 9.87712C5.75873 9.86829 5.94263 9.80964 6.13985 9.79009C6.44888 9.75855 6.75918 9.81973 7.06065 9.86325C6.89591 9.80838 6.66016 9.74152 6.46301 9.73206C6.26611 9.7226 6.05269 9.77116 5.86443 9.73584ZM8.07346 10.1672L7.5802 10.1962C7.76689 10.3104 7.9016 10.2353 8.07346 10.1672ZM11.0479 4.00105L11.2365 4.32017C11.2435 4.18079 11.1675 4.0616 11.0479 4.00105ZM7.87915 7.77569C7.8251 7.6773 7.75547 7.53729 7.67821 7.45719C7.57465 7.34998 7.50149 7.39349 7.36255 7.367C7.24954 7.34556 7.19063 7.26862 7.07244 7.23961C6.95532 7.21123 6.81474 7.17591 6.69517 7.16392L6.72411 7.17842C6.83871 7.24149 6.91786 7.30708 7.04665 7.32663C7.15481 7.34366 7.27375 7.34367 7.37712 7.37773C7.5831 7.44521 7.75623 7.60414 7.87915 7.77569ZM10.4207 2.56435C10.1906 2.40794 10.0361 2.18532 9.8436 1.99863L9.62595 2.01313C9.65054 2.13738 9.84353 2.3146 9.93479 2.401C10.0513 2.512 10.211 2.59589 10.3554 2.66716C10.5727 2.77437 10.7271 2.8942 10.8897 3.08214C10.8417 2.97051 10.7873 2.82041 10.6997 2.73464C10.6244 2.66085 10.5093 2.62427 10.4207 2.56435ZM9.78608 3.02475C9.66291 2.9661 9.55613 2.8488 9.46601 2.73906C9.34561 2.59337 9.33369 2.36064 9.21973 2.23072L9.03109 2.4483C9.15981 2.60913 9.29043 2.79645 9.43744 2.9415C9.54491 3.04809 9.68031 3.05691 9.8115 3.1162C10.0735 3.23414 10.2853 3.51227 10.5204 3.68381C10.4014 3.54758 10.2805 3.41262 10.1636 3.27577C10.0458 3.13765 9.94242 3.0998 9.78608 3.02475ZM10.9028 2.10017L11.0044 2.23072C11.0287 2.15882 10.9893 2.08314 10.9028 2.10017ZM10.1951 5.49577C10.1821 5.37405 10.1323 5.25926 10.0645 5.15835C9.9983 5.05934 9.93959 4.9969 9.91657 4.87202C9.88825 4.7194 9.94961 4.55858 9.91619 4.41037C9.87639 4.23441 9.64746 4.03637 9.49735 3.94429C9.57045 4.0925 9.8154 4.44504 9.66663 4.60839C9.52548 4.57623 9.50025 4.26215 9.4334 4.14611C9.34649 3.99537 9.20951 3.885 9.06016 3.79734C8.87714 3.69012 8.62404 3.64471 8.46524 3.5047C8.34806 3.40126 8.37978 3.19566 8.30568 3.1162L8.0155 3.05755C8.06533 3.1799 8.03726 3.30225 8.06993 3.42586C8.10367 3.55326 8.12246 3.54128 8.24412 3.58353C8.57353 3.69769 8.86755 3.85283 9.14751 4.06285C9.33577 4.20412 9.42665 4.33847 9.46967 4.55605C9.50467 4.7339 9.59486 4.77616 9.72755 4.87517C9.99086 5.07195 10.079 5.32549 10.1226 5.63704C10.155 5.8704 10.3148 6.17059 10.4536 6.36106C10.4045 6.14915 10.2528 5.98644 10.1947 5.78588C10.1683 5.69443 10.2046 5.58469 10.1951 5.49577ZM9.13269 7.72964L9.19065 7.86083C9.29017 7.7965 9.22414 7.6672 9.13269 7.72964ZM9.34674 6.13717C9.24621 6.04824 9.21462 5.98013 9.15849 5.87291C9.09069 5.74362 8.92911 5.70767 8.85954 5.5828C8.77263 5.42639 8.9561 5.38918 8.959 5.26367C8.96177 5.14195 8.7691 5.04861 8.68251 4.9887C8.56464 4.90608 8.42645 4.82724 8.32025 4.72696C8.20073 4.61407 8.13022 4.47406 7.98718 4.38892C7.82907 4.29432 7.669 4.18773 7.50755 4.10259L7.18848 4.00105C7.40393 4.14359 7.59389 4.33278 7.79451 4.49802C7.89555 4.5819 7.93654 4.71057 8.02957 4.78057C8.15444 4.87454 8.36679 4.84553 8.50586 4.92626C8.67658 5.0259 8.68503 5.20628 8.74425 5.3835C8.79181 5.52604 8.81754 5.70074 8.88962 5.8294C8.96297 5.96058 9.11724 6.03563 9.23789 6.11952C9.44709 6.2652 9.63579 6.4544 9.77245 6.66631C9.69532 6.42981 9.52321 6.29358 9.34674 6.13717ZM7.07244 11.8795L7.24651 12.0246C7.23497 11.9413 7.15544 11.8537 7.07244 11.8795ZM16.6669 3.82698C16.7112 3.90204 16.6914 4.01807 16.7645 4.05907L16.779 4.07358C16.7878 3.98654 16.8642 3.82509 16.8197 3.74247C16.7916 3.69012 16.691 3.66868 16.6521 3.6094C16.551 3.45677 16.6071 3.24675 16.3594 3.26378C16.452 3.39622 16.5019 3.51921 16.5623 3.66742C16.5899 3.73553 16.626 3.75761 16.6669 3.82698ZM15.8965 5.40747C15.9137 5.2826 15.9339 5.12681 15.9803 5.00194C16.0263 4.87833 16.1561 4.63678 16.0974 4.49361C16.0522 4.38387 15.918 4.39837 15.9075 4.23629C15.8994 4.11331 15.9638 3.97772 15.9665 3.85221C15.9702 3.68634 15.9427 3.50974 15.9262 3.34387C15.9169 3.25116 15.9196 3.19756 15.8798 3.1162C15.8442 3.04304 15.7761 2.99385 15.7634 2.91312L15.7924 3.18873C15.7808 3.3691 15.85 3.55831 15.8649 3.73995C15.883 3.95942 15.8432 4.20224 15.7649 4.40532C15.9196 4.40153 15.9439 4.65633 15.9267 4.7585C15.9011 4.91049 15.914 5.03032 15.8941 5.17916C15.8748 5.32295 15.7779 5.41693 15.752 5.55379C15.7203 5.72155 15.6785 5.88995 15.6463 6.05708C15.7107 5.94734 15.7965 5.88049 15.8356 5.75687C15.8717 5.64209 15.88 5.5273 15.8965 5.40747ZM12.9631 3.05755C13.0714 3.25622 13.2723 3.60246 13.2533 3.83707C13.2957 3.54696 13.1348 3.26189 12.9817 3.01466C12.9018 2.88537 12.8023 2.77311 12.7129 2.65139C12.5985 2.49624 12.5998 2.34109 12.5543 2.16009C12.486 2.17964 12.3214 2.2755 12.2748 2.20486L12.3538 2.37577C12.5801 2.55552 12.8205 2.79708 12.9631 3.05755ZM5.60181 6.92742C5.41702 6.87129 5.22561 6.80317 5.06971 6.67514C5.05609 6.66379 5.04221 6.65244 5.02827 6.64109C5.03016 6.64361 5.03187 6.64613 5.03382 6.64865C4.93178 6.6455 4.86246 6.68838 4.81346 6.76154C5.06296 6.83786 5.30747 6.93877 5.51661 7.0277C5.54474 7.00121 5.57854 6.96337 5.60181 6.92742ZM17.519 5.93094L17.3449 6.3371C17.405 6.25448 17.5946 6.03626 17.519 5.93094ZM6.53548 12.5613L6.23086 12.5468C6.60725 12.555 6.83001 12.7663 7.05926 13.035C6.91729 12.7896 6.86394 12.5682 6.53548 12.5613ZM17.6496 5.10032C17.6275 5.32863 17.569 5.56704 17.5618 5.79534C17.623 5.66353 17.6164 5.51343 17.6791 5.37909C17.7333 5.26305 17.8427 5.16277 17.8422 5.04546C17.842 4.99437 17.7938 4.94328 17.794 4.88589C17.7942 4.8367 17.8439 4.77679 17.8394 4.72696C17.8254 4.57055 17.6411 4.56235 17.5481 4.45072L17.577 4.53776C17.5935 4.73264 17.669 4.90103 17.6496 5.10032ZM6.04222 11.6329L6.46301 11.5604C6.3563 11.4942 6.21755 11.4627 6.10024 11.3863C5.96137 11.2955 5.80035 11.2482 5.63707 11.2438C5.66066 11.2615 6.3382 11.5465 6.04222 11.6329ZM4.73311 10.7657C4.64917 10.6983 4.54687 10.6566 4.43972 10.6219C4.48412 10.6793 4.52265 10.7412 4.55501 10.8061C4.5533 10.8067 4.55192 10.808 4.55021 10.8086C4.63965 10.849 4.72384 10.8963 4.79776 10.9505C4.98715 11.0912 5.18134 11.1688 5.41829 11.1833L5.21508 11.1397C5.00103 11.0439 4.90277 10.9013 4.73311 10.7657ZM4.98299 7.68612L5.0991 7.61359C5.44553 7.66972 5.72965 7.71766 6.02696 7.90055C6.1898 8.00083 6.41527 8.16482 6.60693 8.18815C6.31158 7.98634 6.07243 7.77 5.72303 7.66027C5.61569 7.62621 4.96584 7.47358 4.98299 7.68612ZM4.91046 8.61197C5.02468 8.64792 5.39621 8.64981 5.38959 8.81757C5.38278 8.98974 4.84424 8.92479 4.45151 8.8737C4.43802 8.89325 4.40831 8.9046 4.3769 8.92163C4.63592 8.93551 4.90113 8.99479 5.15277 9.00677C5.31416 9.01434 5.44118 8.93803 5.59242 8.93424C5.75021 8.93046 5.92826 9.01939 6.07123 9.0793L6.3324 9.16634C6.23061 9.09066 5.45316 8.79549 5.5583 8.67251C5.31239 8.63341 5.11764 8.64351 4.8812 8.53881C4.69073 8.4543 4.50676 8.3597 4.32544 8.25879C4.33326 8.31429 4.34524 8.36978 4.36114 8.42339C4.54284 8.48141 4.71949 8.55079 4.91046 8.61197ZM4.63775 11.5636C4.68095 11.4917 4.90636 11.5219 4.97939 11.4992C4.82254 11.4557 4.6486 11.4362 4.48588 11.4027C4.48715 11.4065 4.48853 11.4109 4.48973 11.4154C4.53962 11.5648 4.51338 11.7402 4.50783 11.8921C4.5381 11.906 4.56762 11.9205 4.5955 11.9344C4.68228 11.9773 4.75355 12.0448 4.83837 12.0832C4.91803 12.1192 5.02543 12.1104 5.1136 12.1507C5.19629 12.1886 5.27455 12.2422 5.35478 12.2838C5.17547 12.1602 4.95095 12.0435 4.79479 11.8947C4.74434 11.8467 4.59701 11.631 4.63775 11.5636ZM8.4612 6.94949C8.30435 6.67514 8.11149 6.67261 7.84067 6.59819C7.68477 6.55594 7.64384 6.43423 7.5802 6.29295C7.48075 6.07095 7.39422 5.91327 7.17751 5.79723C6.98982 5.69632 6.81758 5.70768 6.62188 5.65407C6.46705 5.61181 6.40196 5.4718 6.30408 5.34756C6.164 5.16971 5.99795 5.02275 5.78496 4.94455C5.70108 4.91365 5.61405 4.89977 5.52613 4.89094C5.48993 5.01645 5.49857 5.16213 5.4695 5.28007C5.77046 5.24097 6.04991 5.25044 6.28636 5.54244C6.40915 5.69381 6.46711 5.7247 6.66546 5.76759C6.84577 5.80669 7.06071 5.87922 7.20331 6.0022C7.3507 6.13023 7.38879 6.33584 7.50755 6.48594C7.62435 6.63289 7.73907 6.64172 7.9139 6.68145C8.05157 6.71236 8.23454 6.75713 8.33784 6.85867C8.45256 6.97156 8.44146 7.16644 8.56684 7.26546L8.52326 7.0914C8.50945 7.04094 8.48731 6.9949 8.4612 6.94949ZM17.7511 10.3268L17.9397 10.3123C17.8822 10.2599 17.7894 10.2398 17.7511 10.3268ZM18.346 7.06239C18.4156 7.24339 18.3757 7.66658 18.2495 7.81605C18.3342 7.69748 18.443 7.59972 18.5201 7.46854C18.6086 7.31843 18.525 7.31214 18.4771 7.1633C18.4092 6.95265 18.215 6.4689 18.5448 6.38061C18.4764 6.34971 18.4192 6.30115 18.3637 6.25511C18.3231 6.36296 18.252 6.55594 18.1016 6.48341C18.0953 6.60451 18.1022 6.72497 18.1139 6.8448L18.0531 7.01509C18.1159 6.87634 18.2952 6.92994 18.346 7.06239ZM17.4609 9.28239L17.4755 9.39842C17.6243 9.31139 17.8112 9.32906 17.9645 9.23824C17.8138 9.22247 17.4612 9.11526 17.4609 9.28239ZM16.8516 7.38151C16.9179 7.25853 17.0686 7.17653 17.1559 7.06175C17.2308 6.96336 17.2806 6.80885 17.3584 6.73191C17.3242 6.71299 17.2922 6.68334 17.2578 6.67072L16.8516 7.38151ZM17.1131 5.53487C17.1469 5.34945 17.1642 5.13754 17.2263 4.95969C17.0735 5.18232 16.7038 5.37972 16.7508 4.91932C16.6728 5.23088 16.7018 5.49577 16.403 5.70705C16.5688 5.65407 16.8512 5.48 16.7182 5.79597C16.6236 6.02112 16.3893 6.15799 16.3148 6.36611L16.4308 6.32259C16.5348 6.21853 16.6092 6.23241 16.6811 6.07915C16.7439 5.94481 16.7933 5.79597 16.8651 5.67236C16.6989 5.64209 17.014 5.12114 17.1131 5.53487ZM15.9075 6.85615C15.7791 6.94696 15.6413 6.9148 15.6039 7.10589L15.5747 7.17842C15.6933 7.19545 15.8561 6.97598 15.9528 6.8921C16.0553 6.80318 16.2313 6.69153 16.1955 6.54143C16.1194 6.66694 16.0349 6.76596 15.9075 6.85615ZM19.1005 9.61601L18.6508 10.0222C18.8843 10.0115 18.9906 9.76864 19.1005 9.61601ZM19.3908 9.05029V8.93424C19.32 9.0793 19.2388 9.2376 19.2044 9.3978C19.2906 9.28238 19.3842 9.46844 19.3791 9.55674C19.4343 9.48925 19.6278 8.95884 19.3908 9.05029ZM19.028 8.45304C18.9044 8.36412 18.9582 8.26951 18.9151 8.15094C18.8745 8.03868 18.8256 8.0658 18.7084 8.17554C18.6101 8.26762 18.5241 8.4461 18.5056 8.54259L18.4621 8.58611C18.5463 8.56782 18.6019 8.54891 18.7049 8.5571C18.7505 8.56026 18.9601 8.53124 18.9816 8.55962C19.0531 8.65485 18.7515 8.91028 18.7259 8.99479C18.8453 8.86361 19.1362 8.71856 19.2406 8.54512C19.1822 8.51674 19.0712 8.48394 19.028 8.45304ZM15.9048 6.43486C15.9909 6.3762 16.0648 6.1687 16.0917 6.07725C16.0283 6.15672 15.9598 6.26268 15.8795 6.32259C15.7889 6.38944 15.7101 6.36233 15.618 6.39449C15.4746 6.44495 15.3856 6.64361 15.2846 6.71424L15.4878 6.56919C15.5641 6.50486 15.5967 6.479 15.6937 6.46449C15.7798 6.45125 15.8343 6.48279 15.9048 6.43486ZM18.7379 10.2978L18.7523 10.3268C18.8464 10.2965 18.9561 10.3154 19.0547 10.3104C19.0642 10.2164 19.0947 10.1218 19.0831 10.026C19.0014 10.1363 18.8397 10.2057 18.7379 10.2978ZM18.7949 11.0533C18.7651 10.9922 18.8411 10.9121 18.741 10.9102C18.7473 10.9108 18.611 11.0224 18.6072 11.0262C18.522 11.1082 18.4392 11.1814 18.3461 11.2558L18.201 11.3718C18.3253 11.3718 18.4895 11.2287 18.6072 11.2886C18.7742 11.3731 18.5635 11.5566 18.7088 11.6342C18.8135 11.5081 18.8795 11.3107 19.0123 11.1858C18.9321 11.1896 18.8289 11.1227 18.7949 11.0533ZM14.68 2.47102C14.6409 2.41299 14.6001 2.35749 14.5574 2.3083C14.5923 2.36064 14.6345 2.41489 14.68 2.47102ZM15.0092 4.2962C14.9026 4.41036 14.8151 4.26657 14.7478 4.17512L14.7912 4.30566C14.8537 4.44063 14.9164 4.47973 14.9219 4.6393C14.9265 4.77363 14.9634 4.90734 14.9509 5.04105C14.9751 4.76544 15.1438 4.95022 15.0923 5.15015C15.044 5.33746 14.9907 5.5601 14.924 5.73795C15.0059 5.59353 15.1263 5.52919 15.2266 5.40873C15.3522 5.25673 15.3413 5.05996 15.4681 4.90166C15.158 5.17159 15.0499 4.45829 15.0092 4.2962ZM13.5761 4.45072C13.4556 4.27981 13.2307 4.29242 13.1954 4.03447C13.1911 4.09438 13.1867 4.15115 13.1626 4.2016C12.9636 4.14421 12.8297 3.90645 12.706 3.75446C12.6055 3.63084 12.5871 3.68255 12.4408 3.65291C12.3166 3.62768 12.2849 3.56083 12.194 3.47884C12.1108 3.40316 11.981 3.33694 11.9359 3.22909C11.8849 3.10737 11.9231 3.08277 11.8318 2.997C11.7423 2.91312 11.6431 2.83807 11.5528 2.7504C11.4143 2.61607 11.1687 2.45083 11.0914 2.27424L11.1204 2.39028C11.1562 2.594 11.3715 2.67536 11.3842 2.90997C11.6752 2.98061 11.8042 3.14458 11.9619 3.39244C12.0377 3.51101 12.058 3.59299 12.1941 3.64913C12.328 3.70463 12.4696 3.72608 12.5971 3.80176C12.8166 3.93231 12.9406 4.16817 13.1373 4.30882C13.3434 4.45703 13.6352 4.7011 13.645 4.98302C13.645 4.82156 13.6732 4.58884 13.5761 4.45072ZM13.645 5.23404C13.6606 5.36585 13.6151 5.56136 13.5761 5.68434C13.5467 5.77579 13.457 5.81931 13.4263 5.88301C13.3977 5.94356 13.4183 6.02364 13.4242 6.09049C13.4503 6.38502 13.5145 6.67514 13.6022 6.95706C13.5661 6.82587 13.5604 6.67388 13.5325 6.54018C13.5084 6.42413 13.487 6.30557 13.4713 6.19204C13.447 6.01419 13.4971 5.91265 13.6309 5.78588C13.7697 5.65344 13.7602 5.57901 13.703 5.39359L13.645 5.23404ZM12.2086 5.53929L12.0345 5.36458C11.9896 5.45288 12.1224 5.52857 12.2086 5.53929ZM12.3246 5.59731V5.61118C12.4018 5.69884 12.5115 5.76759 12.5997 5.85778C12.7088 5.96878 12.7809 6.11131 12.8851 6.22294C12.7949 6.11131 12.7569 5.93787 12.6761 5.81552C12.5907 5.6856 12.4918 5.62884 12.3246 5.59731ZM14.1929 3.18557C14.062 3.12377 13.9568 2.91438 13.8805 2.79645C13.7876 2.65391 13.7726 2.5221 13.7466 2.36128C13.7217 2.20739 13.6247 2.12036 13.5403 1.98539C13.5061 2.0308 13.513 2.12099 13.4289 2.11784C13.5219 2.24271 13.6351 2.26226 13.6744 2.43318C13.7085 2.58139 13.7205 2.68166 13.8011 2.82546C13.8827 2.97114 13.9594 3.10296 13.9353 3.27892C13.9186 3.40001 13.8237 3.66111 13.9353 3.72544L13.9933 3.66742C13.9155 3.58795 13.9746 3.31676 14.084 3.26378C14.1987 3.20891 14.3749 3.3464 14.4705 3.41577C14.4493 3.37289 14.432 3.26504 14.3966 3.23477C14.3361 3.18306 14.2624 3.21837 14.1929 3.18557ZM11.9138 5.2435C11.8992 5.23277 11.8859 5.22268 11.8734 5.21259C11.8852 5.22394 11.8986 5.23404 11.9138 5.2435ZM15.035 3.18873C15.0609 3.32622 15.0023 3.50091 15.0815 3.6239L15.1105 3.52236C15.2711 3.13575 14.926 2.77438 14.68 2.47102C14.773 2.60914 14.8552 2.76302 14.9222 2.89861C14.9657 2.98628 15.016 3.08908 15.035 3.18873ZM14.1416 5.16276C14.1204 5.42197 14.1682 5.69127 14.0771 5.94228C14.0352 6.0577 13.9455 6.21411 13.9497 6.30808V6.49666C13.9857 6.35665 14.0907 6.26204 14.1531 6.13717C14.198 6.04698 14.1816 5.96373 14.2106 5.87228C14.2484 5.75308 14.2772 5.75812 14.2512 5.62694C14.2222 5.47936 14.1869 5.29394 14.1416 5.16276ZM14.1384 4.36369L14.1819 5.10348C14.3341 4.88715 14.173 4.58443 14.1384 4.36369ZM11.8426 4.41099C11.8064 4.1871 11.6571 3.593 11.3815 3.56588L11.1786 3.44983C11.4394 3.65733 11.6385 3.93104 11.7549 4.24512C11.8202 4.42108 11.7936 4.64497 11.7589 4.83165C11.7239 5.02023 11.7365 5.10222 11.8734 5.21259C11.7007 5.04357 11.8772 4.6248 11.8426 4.41099ZM18.8516 12.0158C18.7804 12.0322 18.6897 12.0031 18.6217 12.0277C18.5222 12.0643 18.5046 12.1867 18.404 12.2132L18.8539 12.1116C18.8506 12.1211 18.8531 12.0404 18.8516 12.0158Z" fill="black"/>
<path d="M6.88619 13.4342C6.74814 13.4089 6.60882 13.3925 6.48451 13.3225C6.39149 13.2702 6.32085 13.1844 6.2376 13.1188C5.98551 12.9208 5.68241 12.9517 5.38958 12.8659C5.20782 12.8123 5.04725 12.678 4.91039 12.5525C4.78337 12.4364 4.66449 12.309 4.55733 12.1747C4.555 12.1715 4.55008 12.176 4.55223 12.1785C4.73481 12.4333 4.9307 12.6685 5.19666 12.8407C5.47965 13.0236 5.83951 12.9549 6.12244 13.1308C6.20998 13.185 6.28124 13.2588 6.36254 13.3213C6.45481 13.3919 6.55792 13.4291 6.67094 13.4531C6.77809 13.4764 6.88878 13.4783 6.99524 13.5048C7.12812 13.537 7.18596 13.6606 7.24114 13.7729C7.24833 13.788 7.274 13.7773 7.26788 13.7621C7.1929 13.5729 7.08511 13.4707 6.88619 13.4342ZM19.6929 9.10516C19.6478 8.98091 19.5748 8.86045 19.4723 8.7772C19.4519 8.76018 19.4272 8.74441 19.4025 8.73495C19.3799 8.72612 19.3946 8.69018 19.3984 8.66117C19.4032 8.62144 19.4183 8.57854 19.4024 8.5407C19.38 8.48772 19.3412 8.44421 19.2977 8.407C19.2201 8.34141 19.1223 8.33636 19.064 8.24555C18.9294 8.03679 18.9764 7.71135 19.0364 7.48746C19.0705 7.36069 19.1241 7.24528 19.1439 7.11347C19.1621 6.99364 19.158 6.87129 19.1458 6.75083C19.1325 6.62028 19.1058 6.48657 19.0618 6.36296C19.0595 6.35665 19.0533 6.35223 19.0464 6.35413C18.9031 6.3989 18.724 6.37305 18.5939 6.30304C18.493 6.24944 18.4362 6.14853 18.4549 6.035C18.4698 5.94355 18.5253 5.85526 18.5456 5.76318C18.5946 5.54118 18.4625 5.40117 18.2445 5.39864C18.2322 5.39864 18.2322 5.41756 18.2445 5.41819C18.3093 5.41882 18.3741 5.4346 18.4318 5.46361C18.5751 5.53614 18.5325 5.73858 18.4947 5.85841C18.4631 5.95806 18.4122 6.03374 18.4312 6.14032C18.4441 6.21222 18.5016 6.26898 18.5578 6.30998C18.6867 6.40395 18.8905 6.41845 19.0419 6.38061C19.0423 6.3825 19.0426 6.38314 19.0431 6.38503C19.0515 6.41026 19.0586 6.43548 19.0656 6.46134C19.0919 6.55594 19.1093 6.65307 19.1209 6.75083C19.1337 6.85931 19.1339 6.96841 19.1237 7.07626C19.1103 7.21942 19.0525 7.34555 19.0123 7.48115C18.9516 7.68675 18.9369 7.91633 18.9887 8.12572C19.0052 8.19194 19.0345 8.25564 19.0796 8.30799C19.1359 8.37358 19.2329 8.38493 19.2989 8.44106C19.4076 8.53314 19.3794 8.6126 19.3637 8.73811C19.363 8.74378 19.3681 8.7482 19.373 8.75009C19.4884 8.79487 19.5618 8.8983 19.6192 9.00299C19.6363 9.0339 19.651 9.0667 19.6643 9.09949C19.6817 9.14301 19.644 9.23004 19.6298 9.27419C19.5589 9.49493 19.4134 9.69611 19.2642 9.87144C19.2513 9.88657 19.214 9.9137 19.2113 9.93515C19.2029 10.0045 19.1878 10.0733 19.1709 10.1414C19.1421 10.2581 19.0996 10.3728 19.033 10.4731C18.9698 10.569 18.9405 10.6535 18.9419 10.7695C18.943 10.849 18.9614 10.9291 18.9858 11.0035C18.9884 11.0117 18.991 11.0262 18.9973 11.0325C19.0516 11.0868 19.1017 11.1221 19.1423 11.1908C19.1673 11.2325 19.1846 11.2785 19.1991 11.3252C19.2027 11.3365 19.2083 11.3763 19.2122 11.3674C19.1726 11.4538 19.131 11.5396 19.088 11.6247C19.0411 11.7174 18.9805 11.8026 18.9677 11.9079C18.9614 11.9603 18.9702 12.0101 18.9588 12.0624C18.9463 12.1192 18.8953 12.1444 18.848 12.1684C18.6271 12.28 18.4274 12.3898 18.2889 12.6042C18.1446 12.8281 18.1057 13.1113 18.1016 13.3724C18.0985 13.5824 18.0344 13.7918 17.9531 13.986C17.9556 13.7407 17.9184 13.501 17.8578 13.2626C17.8418 13.2002 17.8196 13.1365 17.819 13.0715C17.818 12.9883 17.8305 12.9044 17.8398 12.8218C17.8856 12.4238 17.9845 12.0126 17.8781 11.6184C17.7911 11.2955 17.6576 10.9821 17.5189 10.6781C17.4935 10.6226 17.5096 10.463 17.5068 10.3867C17.4971 10.1319 17.4842 9.87712 17.4675 9.62296C17.4301 9.0585 17.3637 8.48332 16.9794 8.03679C16.8372 7.87218 16.6509 7.81479 16.4427 7.76938C16.3638 7.75235 16.2838 7.73973 16.2036 7.72964C16.2139 7.72081 16.2239 7.71261 16.234 7.70442C16.2612 7.68171 16.2883 7.65901 16.3155 7.63631C16.324 7.62937 16.3149 7.6136 16.3045 7.61739C16.0479 7.70568 15.7856 7.70631 15.5271 7.62748C15.4634 7.60793 15.4021 7.58206 15.3408 7.5562C15.2662 7.5253 15.18 7.52467 15.1005 7.52467C15.0742 7.52467 14.9942 7.51395 14.9721 7.5335C14.8717 7.62243 14.7443 7.6136 14.6247 7.5745C14.6148 7.57134 14.6049 7.56756 14.5952 7.56378C14.5899 7.56189 14.5863 7.55999 14.5834 7.55873C14.5975 7.54107 14.6114 7.52278 14.6253 7.50512L14.7265 7.37458C14.734 7.36512 14.7249 7.35186 14.7133 7.35754C14.6667 7.38088 14.6202 7.40421 14.5736 7.42754C14.5089 7.45971 14.4617 7.51711 14.399 7.55558C14.3148 7.60729 14.2207 7.64325 14.1273 7.67415C14.1016 7.68235 14.0755 7.68991 14.0494 7.69685C14.028 7.70316 14.0235 7.70253 14.0251 7.70379C13.9046 7.61045 13.7716 7.52152 13.6303 7.4635C13.4548 7.3916 13.2524 7.37583 13.0646 7.35628C13.0545 7.35565 13.052 7.36827 13.0571 7.37458C13.1137 7.44395 13.1703 7.51269 13.2268 7.58206C13.1991 7.57134 13.1715 7.56062 13.1438 7.5499C12.87 7.44457 12.5912 7.33799 12.3044 7.27429C11.9418 7.1942 11.5729 7.38845 11.2339 7.4881C10.9771 7.56378 10.698 7.58459 10.4312 7.5972C10.4231 7.5972 10.4184 7.60729 10.4245 7.6136C10.4541 7.64324 10.4838 7.67289 10.5134 7.70253C10.5183 7.70695 10.5215 7.7101 10.5238 7.71199C10.5153 7.71514 10.5069 7.71892 10.4986 7.72271C10.3727 7.77569 10.2482 7.83181 10.125 7.89047C9.84605 8.02354 9.59119 8.21653 9.29717 8.31618C9.29023 8.3187 9.2879 8.32879 9.29502 8.33257C9.3504 8.36285 9.40571 8.39249 9.46096 8.42277C9.4812 8.43412 9.50138 8.44484 9.52163 8.4562C9.52093 8.4562 9.52056 8.45682 9.51999 8.45682C9.50227 8.46818 9.48473 8.47953 9.46707 8.49088C9.41037 8.52683 9.35361 8.56278 9.29698 8.59936C9.27768 8.61134 9.27106 8.66054 9.2638 8.68009C9.24072 8.74316 9.21713 8.80686 9.19336 8.86929C9.15148 8.97966 9.13981 9.09003 9.1219 9.20734C9.09371 9.3915 8.911 9.48546 8.79325 9.6034C8.76752 9.62863 8.75579 9.69926 8.74311 9.73206C8.68408 9.88469 8.62284 10.0354 8.55933 10.1855C8.5027 10.3199 8.45016 10.4479 8.42537 10.5923C8.4021 10.7266 8.40355 10.8641 8.38343 10.9991C8.3449 11.2583 8.16036 11.4702 7.9856 11.6538C7.94801 11.6929 7.90878 11.7244 7.88229 11.7723C7.80945 11.9029 7.75471 12.0423 7.71094 12.1854C7.56248 12.6685 7.59231 13.1869 7.67757 13.6789C7.77262 14.2276 7.87025 14.7781 7.98137 15.3237C8.02275 15.5268 8.06734 15.7292 8.11344 15.931C8.12334 15.9739 8.12548 15.9613 8.08878 15.938C8.02319 15.897 7.95747 15.856 7.89175 15.815C7.82396 15.7727 7.75609 15.7305 7.68829 15.6882C7.6227 15.6472 7.59918 15.6327 7.56456 15.5589C7.4429 15.301 7.43861 14.9938 7.42164 14.7145C7.40897 14.5057 7.39711 14.2944 7.34167 14.092C7.34123 14.0907 7.33972 14.0913 7.33997 14.0926C7.4702 14.5719 7.36065 15.0979 7.56046 15.5615C7.6087 15.6731 7.71579 15.7116 7.81645 15.7746C7.9185 15.8383 8.02067 15.9027 8.12277 15.9664C8.12517 15.9682 8.12776 15.9657 8.12732 15.9632C8.03284 15.5514 7.95217 15.1383 7.87876 14.7227C7.78536 14.1935 7.65203 13.6612 7.62258 13.1239C7.60668 12.8325 7.63052 12.5399 7.70324 12.2579C7.74304 12.1034 7.80258 11.9546 7.87529 11.8127C7.91351 11.7376 7.96933 11.6903 8.02641 11.6298C8.1796 11.4664 8.33046 11.2823 8.38552 11.0615C8.41289 10.9524 8.4144 10.837 8.4238 10.7254C8.44007 10.5337 8.49702 10.3697 8.57251 10.1937C8.63009 10.0588 8.68503 9.92316 8.73882 9.78694C8.75283 9.75099 8.78366 9.628 8.80763 9.61286C8.93137 9.53528 9.11288 9.37383 9.13615 9.22373C9.15627 9.09444 9.17116 8.97588 9.21745 8.85353C9.25365 8.75892 9.26822 8.63783 9.35557 8.58233C9.41826 8.5426 9.48082 8.50286 9.54345 8.46313C9.54881 8.45935 9.54938 8.45115 9.54345 8.44799C9.50668 8.42781 9.46991 8.40763 9.43308 8.38745C9.40375 8.37168 9.37443 8.35529 9.3451 8.33952C9.33696 8.33511 9.32895 8.33068 9.32088 8.32627C9.4327 8.28653 9.53998 8.23104 9.64373 8.17427C9.94009 8.01345 10.2295 7.85263 10.5426 7.7246C10.549 7.72208 10.5524 7.71388 10.5469 7.70884C10.5215 7.68298 10.496 7.65774 10.4707 7.63251C10.4649 7.62684 10.459 7.62054 10.4533 7.61486H10.4584C10.5738 7.60856 10.6891 7.59846 10.804 7.58521C10.9504 7.56882 11.0969 7.54612 11.2392 7.50765C11.4128 7.45972 11.5804 7.3916 11.7534 7.34177C11.9299 7.29069 12.1164 7.25663 12.2989 7.29447C12.4334 7.32222 12.5649 7.36637 12.6951 7.40989C12.8846 7.47296 13.0723 7.54296 13.2577 7.61675C13.2688 7.62116 13.2741 7.60603 13.2681 7.5991C13.2184 7.53855 13.1687 7.47737 13.1191 7.41683C13.1093 7.40484 13.0994 7.39287 13.0895 7.38088C13.1597 7.38845 13.2298 7.3979 13.2997 7.40862C13.4851 7.43574 13.6402 7.48116 13.8019 7.57765C13.8569 7.61045 13.91 7.64703 13.9621 7.68424C13.978 7.69559 14.0004 7.72082 14.0195 7.72586C14.0622 7.73784 14.1568 7.68738 14.1954 7.67351C14.3112 7.63188 14.4241 7.57701 14.518 7.49692C14.5573 7.46286 14.5902 7.44395 14.6372 7.41998C14.6517 7.41304 14.6662 7.40547 14.6807 7.39853C14.64 7.45088 14.5994 7.50323 14.5586 7.55495C14.5546 7.56063 14.5538 7.56882 14.5609 7.5726C14.6617 7.62179 14.8098 7.65522 14.9146 7.59972C14.9307 7.59153 14.9725 7.55306 14.9892 7.5518C15.0262 7.54864 15.0632 7.54738 15.1005 7.54674C15.1958 7.54548 15.2839 7.55621 15.3717 7.59342C15.5401 7.66405 15.7154 7.70631 15.8986 7.71072C16.0199 7.71324 16.1398 7.69117 16.2556 7.65711C16.2486 7.66279 16.2414 7.6691 16.2342 7.67478C16.2125 7.69307 16.1907 7.71136 16.169 7.72901C16.1606 7.73595 16.1684 7.7473 16.1768 7.74856C16.3576 7.76875 16.5403 7.80532 16.7108 7.86902C16.9103 7.94281 17.0399 8.13202 17.142 8.30987C17.4393 8.82577 17.438 9.44258 17.4673 10.0209C17.4772 10.2171 17.4849 10.4138 17.4909 10.61C17.493 10.6768 17.5063 10.7065 17.5339 10.7689C17.6859 11.1114 17.8659 11.4898 17.9037 11.8669C17.9206 12.0347 17.8888 12.2138 17.8697 12.3809C17.8475 12.5727 17.8194 12.7638 17.8014 12.9561C17.7899 13.0785 17.8097 13.1724 17.84 13.2916C17.9031 13.5401 17.9373 13.7918 17.9275 14.0485C17.9272 14.0604 17.9455 14.0661 17.9504 14.0548C18.0193 13.899 18.0741 13.7344 18.1077 13.5672C18.1275 13.4695 18.1248 13.3711 18.1298 13.2715C18.1364 13.1359 18.1589 13.0022 18.1972 12.8716C18.2857 12.5701 18.5003 12.362 18.7786 12.2289C18.8403 12.1993 18.9119 12.1753 18.9582 12.1223C19.0064 12.0668 18.9896 11.9741 18.993 11.9079C18.9991 11.7818 19.1084 11.6418 19.1633 11.5295C19.1796 11.4961 19.2436 11.4078 19.236 11.3687C19.2261 11.3176 19.2074 11.2684 19.1863 11.2217C19.1689 11.182 19.1459 11.1429 19.1185 11.1095C19.0968 11.0836 19.0263 11.0414 19.0161 11.0142C18.9866 10.936 18.9715 10.8528 18.967 10.7695C18.9585 10.6119 19.0449 10.5198 19.1104 10.3892C19.1559 10.2978 19.1838 10.1981 19.2068 10.0998C19.2157 10.0613 19.2228 10.0228 19.2293 9.98433C19.2314 9.97172 19.2419 9.93451 19.2334 9.94334C19.3181 9.85378 19.3933 9.75414 19.4624 9.65197C19.5236 9.56241 19.5766 9.46718 19.6206 9.36753C19.6455 9.31077 19.7162 9.16823 19.6929 9.10516ZM17.3894 4.27666C17.3888 4.29242 17.4025 4.30377 17.4175 4.30504C17.6583 4.31828 17.8262 4.45072 17.9819 4.62416C18.0144 4.66011 18.0458 4.69732 18.0778 4.73453C18.1316 4.7957 18.1553 4.83103 18.1455 4.91932C18.1303 5.05681 18.1392 5.18925 18.1708 5.32359C18.1734 5.33431 18.19 5.3299 18.1876 5.31918C18.1603 5.19809 18.1079 4.92689 18.2008 4.82094C18.2126 4.80706 18.2119 4.7913 18.2008 4.77742C17.9989 4.53019 17.7863 4.26027 17.4449 4.24954C17.4414 4.12025 17.4428 3.98465 17.4103 3.85915C17.406 3.84275 17.3798 3.8459 17.3806 3.86293C17.3867 4.00168 17.3939 4.13791 17.3894 4.27666ZM12.5522 2.05161C12.5595 2.04846 12.5641 2.03711 12.5612 2.02954C12.5418 1.98098 12.5069 1.92042 12.5632 1.89015C12.617 1.86114 12.6761 1.84538 12.7371 1.84475C12.8231 1.84412 12.9003 1.89394 12.9696 1.93872C13.092 2.01819 13.2052 2.07305 13.3528 2.03205C13.3658 2.02827 13.3699 2.0144 13.3644 2.00304C13.3449 1.96142 13.3269 1.92105 13.3019 1.88384C13.4438 1.89456 13.5864 1.89331 13.7263 1.92358C13.8516 1.9507 13.9397 2.01503 14.0227 2.109C14.1308 2.23073 14.2316 2.37704 14.414 2.35497C14.4253 2.35371 14.4339 2.34298 14.4275 2.33163C14.3828 2.25595 14.3625 2.17207 14.3171 2.09702C14.5716 2.10017 14.8477 2.11721 15.0621 2.26605C15.277 2.41552 15.383 2.67031 15.6206 2.79582C15.6374 2.80465 15.665 2.78951 15.6563 2.7687C15.6437 2.73779 15.638 2.70751 15.6355 2.67535C15.7523 2.70878 15.8841 2.7422 15.9704 2.82924C16.0582 2.91753 16.1037 3.06827 16.1579 3.17801C16.162 3.18621 16.1741 3.19125 16.1828 3.1881C16.3592 3.12314 16.5381 3.09602 16.6563 3.26883C16.7455 3.39875 16.7838 3.5602 16.8548 3.70021C16.8581 3.70652 16.8662 3.71094 16.8734 3.71031C17.0387 3.70716 17.191 3.74121 17.35 3.78409C17.3604 3.78662 17.3647 3.77085 17.3544 3.76833C17.2122 3.72607 17.0577 3.6794 16.9089 3.66994C16.8533 3.66616 16.7927 3.43596 16.7703 3.38361C16.7047 3.22972 16.6137 3.09665 16.434 3.08719C16.3889 3.08467 16.3425 3.09413 16.2986 3.10359C16.2668 3.11052 16.2359 3.12187 16.2052 3.1326C16.1719 3.14395 16.1538 3.07647 16.1432 3.05503C16.1061 2.9825 16.0732 2.90618 16.0262 2.83933C15.934 2.70815 15.7619 2.66652 15.6173 2.62174C15.6028 2.61796 15.5878 2.62932 15.588 2.64446C15.588 2.67284 15.5899 2.69806 15.5942 2.72329C15.3851 2.58706 15.2671 2.35118 15.055 2.21432C14.8336 2.07116 14.5388 2.06043 14.2835 2.06043C14.268 2.06043 14.2593 2.07999 14.2707 2.09134C14.3348 2.15315 14.3502 2.24712 14.3892 2.32532C14.1911 2.33163 14.0906 2.1172 13.9585 1.99926C13.7755 1.83529 13.4868 1.86367 13.2606 1.84159C13.242 1.8397 13.237 1.86303 13.2468 1.87438C13.2794 1.91285 13.2995 1.95511 13.3198 1.99989C13.1568 2.03395 13.0457 1.93242 12.9091 1.8561C12.7663 1.77664 12.6241 1.80628 12.489 1.88764C12.482 1.89142 12.4768 1.90151 12.4799 1.90971C12.4897 1.93052 12.4969 1.95196 12.5017 1.97466C12.5193 2.03962 12.4616 2.04782 12.4075 2.0535C12.3313 2.06107 12.2621 2.01755 12.204 1.97466C12.1838 1.95953 12.1643 1.99359 12.1842 2.00809C12.3026 2.09639 12.4175 2.11216 12.5522 2.05161ZM8.49021 3.01466C8.48971 2.86141 8.48018 2.70499 8.51449 2.55489C8.53208 2.47732 8.56974 2.40669 8.65715 2.4111C8.72993 2.41489 8.79969 2.43128 8.87297 2.42308C8.98246 2.41046 9.07151 2.30577 9.12455 2.2181C9.15993 2.15945 9.18194 2.09261 9.19834 2.02639C9.21007 1.97846 9.22855 1.99801 9.27326 2.00431C9.32454 2.01188 9.37543 2.01629 9.42551 2.03017C9.44304 2.03458 9.45358 2.01377 9.44241 2.00116C9.41813 1.97341 9.39662 1.94313 9.37367 1.91475C9.48637 1.88511 9.60614 1.85232 9.72193 1.87502C9.81553 1.89394 9.9042 1.94692 9.99186 1.9835C10.191 2.06549 10.4695 2.0699 10.6753 2.00809C10.6887 2.00431 10.6912 1.98918 10.683 1.97909C10.6704 1.96395 10.6398 1.93051 10.6278 1.90276C10.8502 1.93178 11.0795 1.8889 11.3008 1.86872C11.539 1.84664 11.8624 1.81005 12.061 1.97214C12.0645 1.97529 12.0695 1.97025 12.0661 1.9671C11.8929 1.80502 11.6383 1.8088 11.4168 1.82141C11.1534 1.83655 10.8734 1.90782 10.6099 1.86619C10.599 1.8643 10.588 1.8706 10.588 1.88259C10.588 1.92232 10.6136 1.95259 10.6394 1.9816C10.3972 2.04593 10.1254 2.00557 9.90155 1.90656C9.83476 1.87691 9.76602 1.84159 9.69223 1.83466C9.5729 1.82267 9.45263 1.85736 9.33829 1.88764C9.32492 1.89079 9.32195 1.90719 9.33053 1.91665C9.35021 1.93872 9.36799 1.96269 9.38603 1.98602C9.32258 1.97404 9.25788 1.96962 9.19544 1.95259C9.18686 1.95007 9.17513 1.95511 9.17362 1.9652C9.14688 2.1254 9.07403 2.29316 8.92046 2.36758C8.81003 2.42119 8.69625 2.34614 8.58601 2.38145C8.50812 2.40605 8.48138 2.52966 8.46921 2.59589C8.44398 2.73274 8.45413 2.87591 8.45483 3.01466C8.45495 3.03737 8.49034 3.03737 8.49021 3.01466ZM5.71735 4.68345C5.82286 4.61722 5.92301 4.60146 6.04335 4.58443C6.15511 4.5693 6.2364 4.50245 6.30855 4.41983C6.38953 4.32712 6.40441 4.21233 6.51062 4.13791C6.64079 4.04709 6.81499 4.0515 6.95765 3.98654C6.96799 3.98213 6.96787 3.967 6.96099 3.96006C6.93337 3.93042 6.90814 3.89887 6.87989 3.87049C7.15997 3.89572 7.09331 3.46308 7.20343 3.2846C7.32363 3.08909 7.59773 3.09728 7.77483 2.97997C7.80724 2.95853 7.83461 2.93015 7.86022 2.90177C7.9096 2.84564 7.95911 2.89357 8.01808 2.92069C8.15166 2.98249 8.28801 3.03736 8.42821 3.08214C8.43168 3.0834 8.4332 3.07836 8.42966 3.0771C8.24311 3.00836 8.06973 2.91627 7.8927 2.82671C7.88482 2.82293 7.87637 2.82482 7.87151 2.83239C7.69814 3.0916 7.30572 3.01467 7.156 3.29721C7.06341 3.47254 7.13443 3.91086 6.82319 3.82446C6.80351 3.81942 6.79342 3.8459 6.80963 3.85662C6.84369 3.8787 6.86721 3.90582 6.89345 3.93546C6.93722 3.98591 6.85573 3.9897 6.81474 4.00105C6.73824 4.02186 6.66047 4.03384 6.5853 4.0597C6.48193 4.09565 6.40044 4.16882 6.35838 4.26846C6.29979 4.40721 6.18677 4.52451 6.03402 4.551C5.91065 4.57181 5.80874 4.58444 5.69963 4.65318C5.68064 4.66516 5.69818 4.69543 5.71735 4.68345ZM4.44104 8.57603C4.39973 8.48899 4.37179 8.39943 4.3523 8.30546C4.34908 8.28969 4.33754 8.14842 4.33136 8.14842C4.34776 8.14905 4.36491 8.14716 4.381 8.14464C4.44709 8.13265 4.50146 8.10049 4.5451 8.04941C4.6467 7.93147 4.66575 7.75172 4.68309 7.60351C4.70662 7.40232 4.70901 7.19798 4.74761 6.99868C4.77839 6.83912 4.84613 6.66757 5.03382 6.66757C5.04693 6.66757 5.05803 6.65118 5.04971 6.63983C4.99516 6.56163 4.88012 6.42034 5.00127 6.35223C5.06926 6.31376 5.14999 6.29736 5.22043 6.26331C5.39469 6.17753 5.47996 5.97509 5.47309 5.78967C5.46937 5.68876 5.42793 5.59416 5.36896 5.51406C5.33358 5.46613 5.35023 5.47874 5.38782 5.44469C5.41696 5.41757 5.43733 5.38981 5.45505 5.35449C5.54499 5.17475 5.47403 4.95716 5.57923 4.77805C5.58024 4.77616 5.57765 4.7749 5.57664 4.77679C5.43625 4.97609 5.56693 5.35134 5.31056 5.46297C5.3028 5.46612 5.30305 5.47748 5.30804 5.48253C5.43676 5.62065 5.47429 5.80038 5.41853 5.98013C5.36827 6.14221 5.24036 6.22988 5.08875 6.28412C5.02858 6.30557 4.95328 6.32386 4.92162 6.38503C4.8834 6.45882 4.95315 6.56414 4.99944 6.63163C4.714 6.65244 4.69199 7.05104 4.67262 7.27051C4.65118 7.51522 4.68265 8.11437 4.31566 8.10932C4.30519 8.10932 4.29598 8.11815 4.29623 8.12887C4.2997 8.29159 4.33805 8.44863 4.40786 8.59557C4.41852 8.61828 4.45157 8.59873 4.44104 8.57603ZM4.47049 11.3056C4.44186 11.2331 4.40174 11.165 4.37999 11.0893C4.34347 10.9625 4.47371 10.8793 4.56402 10.8213C4.5726 10.8156 4.57506 10.8055 4.57039 10.7967C4.48052 10.6232 4.3552 10.4801 4.19438 10.3703C4.31004 10.2896 4.35028 10.1508 4.41814 10.0316C4.42426 10.0209 4.41814 10.0089 4.40742 10.0052C4.2249 9.93451 4.25385 9.76801 4.41184 9.68981C4.42256 9.68476 4.42319 9.669 4.4155 9.66143C4.31641 9.56052 4.19179 9.43123 4.18157 9.28239C4.17773 9.22752 4.16637 9.15625 4.20888 9.11336C4.23272 9.08877 4.26161 9.07489 4.28381 9.04777C4.31414 9.01182 4.3265 8.97272 4.3675 8.94433C4.3931 8.92668 4.42767 8.91785 4.44961 8.89515C4.49906 8.84406 4.4428 8.77721 4.41007 8.7337C4.40351 8.7255 4.38856 8.73369 4.39519 8.74252C4.43246 8.79486 4.47566 8.85668 4.39714 8.89515C4.36346 8.91218 4.33287 8.92794 4.30519 8.95379C4.27031 8.98659 4.25789 9.03264 4.21702 9.06228C4.19646 9.07679 4.17886 9.0894 4.16373 9.11021C4.11144 9.18021 4.14216 9.31833 4.17079 9.39149C4.21203 9.49618 4.29447 9.58889 4.37324 9.66962C4.20863 9.76548 4.19848 9.94839 4.37797 10.0304C4.31547 10.1477 4.27586 10.2845 4.1542 10.3552C4.14216 10.3621 4.14317 10.3785 4.1542 10.3861C4.24288 10.4435 4.32045 10.5103 4.39052 10.5892C4.42779 10.6314 4.45933 10.6775 4.48941 10.7248C4.53293 10.7929 4.52328 10.8023 4.46185 10.8484C4.39373 10.8995 4.32594 10.9745 4.3395 11.0666C4.35779 11.1896 4.43656 11.3012 4.47238 11.4198C4.53268 11.6191 4.47408 11.8221 4.49363 12.0246C4.49584 12.0473 4.53148 12.0473 4.52933 12.0246C4.51754 11.9022 4.53406 11.7793 4.53728 11.6569C4.54062 11.5339 4.51552 11.4198 4.47049 11.3056Z" fill="black"/>
<path d="M19.2239 9.93517C19.2239 9.93517 19.6374 9.49999 19.6809 9.10833C19.6809 9.10833 19.5721 8.80372 19.3761 8.73813L19.3979 8.56406C19.3979 8.56406 19.3544 8.41207 19.1585 8.34648C18.9627 8.28152 18.8974 7.78075 19.0715 7.34557C19.2456 6.9104 19.0498 6.36613 19.0498 6.36613C19.0498 6.36613 18.9191 6.40965 18.7233 6.36613C18.5274 6.32261 18.375 6.16999 18.4621 5.97448C18.5492 5.77834 18.5709 5.62634 18.5056 5.51724C18.4403 5.40876 18.2444 5.40875 18.2444 5.40875L18.1792 5.32108C18.1356 5.14702 18.1356 4.97295 18.1792 4.79889C17.9615 4.55986 17.7874 4.27668 17.4174 4.27668C17.4174 4.14612 17.4174 3.9935 17.3957 3.86295L17.3521 3.77591C17.1998 3.73239 17.0258 3.68888 16.8733 3.68888C16.6992 3.3193 16.6774 2.97116 16.1768 3.16667C15.9811 2.79646 16.0463 2.77503 15.611 2.64448C15.611 2.68799 15.611 2.73151 15.6328 2.77502C15.3717 2.64447 15.2846 2.38336 15.0452 2.23074C14.8493 2.10019 14.5228 2.07875 14.2834 2.07875C14.3487 2.14371 14.3705 2.27426 14.414 2.33985C14.1529 2.38337 14.0657 2.03523 13.8482 1.9482C13.6522 1.86117 13.4564 1.8826 13.2606 1.86116C13.3041 1.90468 13.3258 1.96964 13.3476 2.01315C12.9994 2.12226 12.9123 1.64295 12.4988 1.90468C12.5205 1.9482 12.5205 1.99171 12.5422 2.03523C12.4118 2.10019 12.3029 2.07875 12.1941 1.99172L12.0636 1.96965C11.7589 1.6871 10.9754 1.9482 10.6054 1.88261V1.90468C10.627 1.92612 10.6489 1.96965 10.6706 1.99172C10.54 2.03524 10.2136 2.03524 10.0612 1.99172C9.713 1.86117 9.75651 1.79557 9.34298 1.90468C9.3648 1.92612 9.40838 1.99171 9.43013 2.01315C9.3648 1.99171 9.256 1.99172 9.1906 1.96965C9.16891 2.12227 9.08187 2.31778 8.92956 2.38337C8.84247 2.44833 8.62482 2.3613 8.58124 2.40482C8.45069 2.49185 8.47245 2.81854 8.47245 3.01468L8.42893 3.07965C8.2331 3.01469 8.05891 2.92765 7.8849 2.84062C7.71077 3.12316 7.3625 3.01468 7.18844 3.27579C7.05782 3.4713 7.16662 3.94998 6.81842 3.84151C6.86193 3.86295 6.90545 3.92855 6.94903 3.97206C6.81842 4.03702 6.64422 4.03702 6.53543 4.10261C6.3396 4.21109 6.40488 4.29813 6.29609 4.40723C6.0785 4.66834 5.96958 4.49426 5.70848 4.66833L5.5778 4.77744C5.42555 4.99503 5.5778 5.36461 5.3167 5.47372C5.53435 5.6913 5.49083 6.03943 5.27312 6.2135C5.05559 6.36612 4.77261 6.27909 5.03377 6.64867C4.44623 6.62723 4.92498 8.15096 4.31562 8.12889C4.31562 8.28152 4.35907 8.45558 4.42441 8.58613L4.40259 8.73813C4.55496 8.93427 4.35907 8.86868 4.29379 8.99923C4.22852 9.12978 4.14148 9.04275 4.16318 9.28241C4.16318 9.41296 4.31562 9.58703 4.40259 9.67406C4.20676 9.7611 4.20676 9.95723 4.40259 10.0222C4.33731 10.1313 4.29379 10.3054 4.16318 10.3703C4.33731 10.4794 4.46792 10.6321 4.55496 10.8061C4.20676 11.0237 4.40259 11.1108 4.48968 11.4154C4.55496 11.6109 4.48968 11.8505 4.51144 12.0246L4.55496 12.1772C4.75085 12.4383 4.99026 12.6994 5.27312 12.8514C5.53435 12.982 5.81727 12.9385 6.05661 13.0476C6.38318 13.2217 6.3396 13.3743 6.75308 13.4392C7.01431 13.4828 7.12316 13.4613 7.25365 13.7659L7.34068 14.092C7.47136 14.5492 7.36251 15.2241 7.60191 15.6372L8.12425 15.9639C8.12425 15.9639 7.99369 15.3981 7.92836 15.0279C7.86308 14.6583 7.7978 14.2881 7.71077 13.8309C7.62367 13.3743 7.47136 12.5033 7.90653 11.7421C7.90653 11.7421 8.2331 11.4368 8.34189 11.1757C8.45069 10.9146 8.36372 10.6535 8.51596 10.3054C8.66833 9.95724 8.79895 9.6091 8.79895 9.6091C8.79895 9.6091 9.01653 9.47855 9.12539 9.23889L9.16891 8.95571C9.16891 8.95571 9.21242 8.84724 9.29952 8.60758L9.53893 8.45558L9.29952 8.32503C9.29952 8.32503 9.49541 8.25944 9.7784 8.08537C10.0612 7.9113 10.54 7.71516 10.54 7.71516L10.4312 7.60668C10.4312 7.60668 10.9318 7.58461 11.2365 7.49758C11.5412 7.41054 11.9546 7.21503 12.2812 7.27999C12.6076 7.34558 13.2606 7.60668 13.2606 7.60668L13.0646 7.36702C13.0646 7.36702 13.2823 7.3891 13.4999 7.43261C13.7175 7.47613 14.0223 7.71516 14.0223 7.71516C14.0223 7.71516 14.3923 7.62813 14.5446 7.45406L14.7187 7.36702L14.5664 7.56316C14.5664 7.56316 14.8275 7.69371 14.9799 7.54109C14.9799 7.54109 15.2192 7.51964 15.3282 7.56316C15.4369 7.60668 15.8287 7.80219 16.3075 7.62813L16.1768 7.73724C16.1768 7.73724 16.5687 7.78075 16.7864 7.88923C17.0039 7.99834 17.3521 8.4991 17.4174 9.15185C17.4828 9.80461 17.5044 10.675 17.5044 10.675C17.5044 10.675 17.918 11.5674 17.918 11.9161C17.918 12.2643 17.7874 12.982 17.8091 13.1125C17.831 13.2437 17.9615 13.5919 17.9397 14.0485C17.9397 14.0485 18.1139 13.6568 18.1139 13.3957C18.1139 13.1346 18.1574 12.7209 18.4185 12.4598C18.6797 12.1987 18.9191 12.1987 18.9627 12.0902C19.0061 11.9811 18.9409 11.9161 19.028 11.7635C19.115 11.6109 19.2239 11.3719 19.2239 11.3719C19.2239 11.3719 19.1803 11.1322 19.0061 11.0237C19.0061 11.0237 18.8757 10.697 19.028 10.5009C19.1803 10.3054 19.2239 9.93517 19.2239 9.93517Z" fill="#050301"/>
<path d="M12.9341 11.6979C12.9341 11.6979 12.7776 11.8802 12.5558 11.9527C12.6705 11.8348 12.7478 11.6802 12.7817 11.5024C12.7817 11.5024 12.4988 11.5674 12.1723 11.5024C11.8459 11.4368 10.3876 10.6749 9.6695 10.7626C9.6695 10.7626 9.73484 10.784 9.86539 10.8496C9.86539 10.8496 8.79897 10.9367 8.25488 11.8726C8.25488 11.8726 8.88601 11.5024 9.58241 11.6544C10.2789 11.807 11.193 12.0902 11.7589 12.1772C11.8981 12.1987 12.0254 12.1961 12.1396 12.1734C12.3345 12.1583 12.7677 12.0807 12.9341 11.6979Z" fill="#050301"/>
<path d="M14.7622 11.6979C14.7622 11.6979 14.8641 11.8802 15.0086 11.9527C14.9339 11.8348 14.8836 11.6802 14.8614 11.5024C14.8614 11.5024 15.0456 11.5674 15.2582 11.5024C15.4708 11.4368 16.4203 10.6749 16.888 10.7626C16.888 10.7626 16.8455 10.784 16.7604 10.8496C16.7604 10.8496 17.4548 10.9367 17.8091 11.8726C17.8091 11.8726 17.3982 11.5024 16.9447 11.6544C16.4912 11.807 15.8959 12.0902 15.5275 12.1772C15.4368 12.1987 15.3539 12.1961 15.2796 12.1734C15.1526 12.1583 14.8704 12.0807 14.7622 11.6979Z" fill="#050301"/>
<path d="M9.21249 13.2437C9.21249 13.2437 8.97308 13.1996 8.75549 13.0255L8.95138 13.0041C8.95138 13.0041 9.4302 12.6339 10.1048 12.5468C10.7795 12.4598 11.3236 12.743 11.6935 13.1346C11.6935 13.1346 10.5618 13.2652 10.4748 13.2652L9.21249 13.2437Z" fill="#050301"/>
<path d="M9.01783 12.7449C9.40948 12.521 9.86969 12.4043 10.3194 12.4024C10.7152 12.4011 11.0782 12.509 11.4098 12.7228C11.4116 12.7241 11.4132 12.7209 11.4115 12.7196C11.1097 12.5033 10.7199 12.3866 10.3526 12.3602C9.86786 12.3255 9.41983 12.4869 9.01543 12.7411C9.01279 12.7423 9.01518 12.7468 9.01783 12.7449Z" fill="#461C0F"/>
<path d="M11.7369 13.1567C11.0305 12.601 9.78409 12.5544 9.10352 13.1781L9.23413 13.2437C9.88701 13.6789 10.9534 13.5698 11.6282 13.3087L11.7369 13.2652L11.9546 13.3087L11.7369 13.1567Z" fill="white"/>
<path d="M10.2382 13.532C10.5552 13.532 10.8121 13.2746 10.8121 12.958C10.8121 12.8861 10.7985 12.818 10.7746 12.755C10.4057 12.6963 10.0184 12.7228 9.67554 12.8433C9.6681 12.8805 9.66406 12.9183 9.66406 12.958C9.66406 13.2746 9.92107 13.532 10.2382 13.532Z" fill="#310F0B"/>
<path d="M10.2381 13.4657C10.5187 13.4657 10.7461 13.238 10.7461 12.958C10.7461 12.8817 10.7288 12.8092 10.6985 12.7442C10.3794 12.7039 10.0499 12.7272 9.74972 12.8193C9.73729 12.8634 9.7301 12.9095 9.7301 12.958C9.7301 13.238 9.95753 13.4657 10.2381 13.4657Z" fill="#310F0B"/>
<path d="M10.5378 12.958C10.5378 13.1233 10.4036 13.2576 10.2381 13.2576C10.0726 13.2576 9.93835 13.1233 9.93835 12.958C9.93835 12.7921 10.0726 12.6578 10.2381 12.6578C10.4036 12.6578 10.5378 12.7921 10.5378 12.958Z" fill="#050301"/>
<path d="M10.4498 12.958C10.4498 13.0747 10.355 13.1693 10.2382 13.1693C10.1213 13.1693 10.0264 13.0747 10.0264 12.958C10.0264 12.8407 10.1213 12.7461 10.2382 12.7461C10.355 12.7461 10.4498 12.8407 10.4498 12.958Z" fill="#050301"/>
<path d="M10.2381 12.8319C10.3001 12.8319 10.3509 12.7852 10.3591 12.7253C10.279 12.7265 10.1991 12.7322 10.1201 12.741C10.1345 12.7934 10.1815 12.8319 10.2381 12.8319Z" fill="white"/>
<path d="M9.10742 13.1819C9.46413 12.8798 9.96767 12.7562 10.4255 12.7518C10.8861 12.748 11.3617 12.8868 11.735 13.1598C11.7386 13.1624 11.7432 13.1567 11.7397 13.1535C11.3699 12.8514 10.8978 12.7146 10.4255 12.6982C9.93046 12.6812 9.45921 12.8306 9.09979 13.1743C9.09455 13.1794 9.10212 13.1863 9.10742 13.1819Z" fill="#050301"/>
<path d="M9.23032 13.25C9.57347 13.4739 9.98714 13.5445 10.3906 13.5458C10.8094 13.5477 11.2416 13.4714 11.6291 13.3112C11.6324 13.3099 11.6311 13.3049 11.6275 13.3061C10.8895 13.5647 9.92918 13.6858 9.2382 13.2367C9.22969 13.2311 9.22187 13.2449 9.23032 13.25Z" fill="#C7635D"/>
<path d="M17.1096 13.2437C17.1096 13.2437 17.3051 13.1996 17.4829 13.0255L17.3229 13.0041C17.3229 13.0041 16.932 12.6339 16.3813 12.5468C15.8304 12.4598 15.3864 12.743 15.0844 13.1346C15.0844 13.1346 16.0082 13.2652 16.0793 13.2652L17.1096 13.2437Z" fill="#050301"/>
<path d="M17.2686 12.7449C16.9487 12.521 16.5731 12.4043 16.2061 12.4024C15.883 12.4011 15.5866 12.509 15.316 12.7228C15.3144 12.7241 15.313 12.7209 15.3144 12.7196C15.5608 12.5033 15.8791 12.3866 16.179 12.3602C16.5747 12.3255 16.9404 12.4869 17.2705 12.7411C17.2726 12.7423 17.2708 12.7468 17.2686 12.7449Z" fill="#461C0F"/>
<path d="M15.0488 13.1567C15.6255 12.601 16.6429 12.5544 17.1984 13.1781L17.0919 13.2437C16.5589 13.6789 15.6883 13.5698 15.1376 13.3087L15.0488 13.2652L14.8711 13.3087L15.0488 13.1567Z" fill="white"/>
<path d="M16.4817 12.958C16.4817 12.8861 16.4692 12.818 16.4474 12.7549C16.1101 12.6874 15.7481 12.736 15.4358 12.888C15.4332 12.9107 15.4315 12.934 15.4315 12.958C15.4315 13.2248 15.5988 13.4487 15.8249 13.513C15.8765 13.5206 15.9285 13.5263 15.9807 13.5307C16.2594 13.5168 16.4817 13.2658 16.4817 12.958Z" fill="#310F0B"/>
<path d="M15.9567 13.4657C16.2133 13.4657 16.4212 13.238 16.4212 12.958C16.4212 12.8811 16.4051 12.8079 16.377 12.743C16.0837 12.6982 15.7759 12.7398 15.5011 12.8584C15.4952 12.8905 15.4919 12.924 15.4919 12.958C15.4919 13.238 15.7 13.4657 15.9567 13.4657Z" fill="#310F0B"/>
<path d="M16.2307 12.958C16.2307 13.1233 16.1079 13.2576 15.9567 13.2576C15.8052 13.2576 15.6824 13.1233 15.6824 12.958C15.6824 12.7921 15.8052 12.6578 15.9567 12.6578C16.1079 12.6578 16.2307 12.7921 16.2307 12.958Z" fill="#050301"/>
<path d="M16.1502 12.958C16.1502 13.0747 16.0635 13.1693 15.9567 13.1693C15.8497 13.1693 15.7629 13.0747 15.7629 12.958C15.7629 12.8407 15.8497 12.7461 15.9567 12.7461C16.0635 12.7461 16.1502 12.8407 16.1502 12.958Z" fill="#050301"/>
<path d="M15.9567 12.8319C16.013 12.8319 16.0592 12.7858 16.0673 12.7272C15.995 12.7303 15.9231 12.7385 15.8518 12.7518C15.8678 12.7984 15.9085 12.8319 15.9567 12.8319Z" fill="white"/>
<path d="M17.1954 13.1819C16.9041 12.8798 16.493 12.7562 16.1194 12.7518C15.7433 12.748 15.3552 12.8868 15.0504 13.1598C15.0475 13.1624 15.0437 13.1567 15.0465 13.1535C15.3484 12.8514 15.7338 12.7146 16.1194 12.6982C16.5236 12.6812 16.9082 12.8306 17.2017 13.1743C17.2059 13.1794 17.1998 13.1863 17.1954 13.1819Z" fill="#050301"/>
<path d="M17.0951 13.25C16.815 13.4739 16.4774 13.5445 16.1479 13.5458C15.8061 13.5477 15.4533 13.4714 15.1369 13.3112C15.1342 13.3099 15.1353 13.3049 15.1382 13.3061C15.7408 13.5647 16.5245 13.6858 17.0887 13.2367C17.0956 13.2311 17.102 13.2449 17.0951 13.25Z" fill="#C7635D"/>
</svg>
